<?xml version="1.0" standalone="no"?>
<!DOCTYPE svg PUBLIC "-//W3C//DTD SVG 20010904//EN"
 "http://www.w3.org/TR/2001/REC-SVG-20010904/DTD/svg10.dtd">
<svg version="1.0" xmlns="http://www.w3.org/2000/svg"
 width="840.000000pt" height="840.000000pt" viewBox="0 0 840.000000 840.000000"
 preserveAspectRatio="xMidYMid meet">
<metadata>
Created by potrace 1.11, written by Peter Selinger 2001-2013
</metadata>
<g transform="translate(0.000000,840.000000) scale(0.100000,-0.100000)"
fill="#000000" stroke="none">
<path d="M3099 8396 c-3 -3 -3 -1082 0 -1121 1 -7 155 -9 443 -8 244 0 449 2
456 2 9 1 12 40 12 161 l0 160 -265 0 c-205 0 -265 3 -266 13 -6 90 -5 97 15
98 12 1 127 1 257 1 l237 1 -2 131 -1 131 -252 -1 c-139 0 -253 2 -254 5 -3
18 -5 88 -2 96 2 7 91 10 251 10 136 -1 255 1 265 3 15 4 17 20 17 163 l0 159
-453 0 c-250 0 -456 -2 -458 -4z"/>
<path d="M4222 8266 l0 -133 41 -45 c137 -147 240 -259 275 -298 22 -25 74
-81 115 -125 65 -69 73 -81 56 -85 -11 -3 -126 -5 -254 -4 l-235 0 1 -112 c1
-62 -1 -116 -4 -121 -3 -5 -2 -15 2 -22 4 -7 6 -22 4 -34 l-4 -22 526 1 c438
0 528 3 535 14 5 8 6 18 3 23 -2 4 -5 59 -5 121 l-1 113 -66 70 c-58 61 -165
176 -322 348 -26 27 -63 68 -82 90 l-36 40 244 3 244 2 0 155 0 155 -519 0
-518 0 0 -134z"/>
<path d="M1234 6697 c3 -28 8 -83 11 -122 3 -38 7 -88 9 -110 3 -22 8 -69 11
-105 3 -36 8 -92 11 -125 8 -82 12 -137 19 -220 3 -38 7 -81 10 -95 2 -14 7
-63 10 -110 3 -47 7 -101 9 -120 3 -19 7 -64 10 -100 3 -36 7 -90 10 -120 3
-30 8 -84 11 -120 11 -136 16 -186 20 -225 2 -22 6 -74 10 -115 3 -41 8 -97
11 -125 6 -52 9 -96 18 -205 3 -36 8 -90 11 -122 4 -31 8 -80 10 -110 3 -29 7
-75 9 -103 5 -46 10 -100 21 -240 3 -27 7 -75 10 -105 3 -30 7 -82 10 -115 3
-33 7 -80 9 -105 3 -25 8 -76 11 -115 4 -38 8 -90 10 -115 3 -25 7 -74 10
-110 3 -36 7 -90 10 -120 10 -106 17 -175 19 -215 2 -22 6 -67 10 -100 13
-130 18 -182 22 -235 3 -52 7 -91 18 -220 3 -30 8 -84 11 -120 3 -36 8 -87 11
-115 3 -27 7 -70 9 -95 5 -82 15 -204 21 -245 2 -22 7 -70 9 -105 7 -88 15
-178 20 -220 2 -19 7 -71 10 -115 3 -44 8 -98 11 -120 4 -38 7 -68 19 -238 3
-38 7 -81 9 -95 4 -25 7 -55 22 -232 3 -36 7 -76 9 -90 2 -14 3 -39 4 -55 1
-29 4 -31 86 -54 46 -13 88 -23 92 -23 4 0 19 -5 33 -10 14 -5 32 -11 40 -13
8 -2 107 -29 220 -60 113 -32 212 -58 220 -60 8 -2 35 -10 60 -18 45 -14 121
-35 150 -41 8 -2 22 -5 30 -8 15 -6 26 -9 170 -48 41 -11 100 -28 130 -37 30
-9 60 -18 65 -19 6 -1 55 -14 110 -29 55 -15 107 -29 115 -30 8 -2 15 -4 15
-5 0 -1 7 -3 15 -5 8 -2 49 -14 90 -26 143 -40 215 -60 240 -65 14 -3 45 -12
70 -20 25 -9 56 -18 70 -20 14 -3 61 -15 105 -29 44 -13 130 -37 191 -54 l110
-31 115 31 c63 17 121 33 129 35 8 2 47 13 85 24 39 11 79 22 90 25 11 2 135
36 275 75 140 39 262 73 270 75 8 2 26 8 40 13 14 5 27 10 30 10 3 0 25 5 50
12 25 7 52 14 60 15 8 2 73 20 144 40 71 20 137 38 145 40 9 2 27 8 41 13 14
5 28 10 33 11 4 0 8 1 10 2 5 1 33 8 57 13 13 3 54 14 90 25 74 22 207 60 230
65 15 4 82 22 205 57 39 11 77 21 85 24 8 2 40 10 70 19 30 8 82 22 115 31 33
9 63 20 67 23 3 4 10 43 14 87 3 44 8 94 10 110 1 17 5 64 9 105 3 41 8 94 10
117 3 23 8 68 10 100 9 112 16 188 20 228 4 37 10 104 20 230 2 28 6 73 9 100
16 169 19 204 20 242 1 24 3 43 6 43 3 0 5 17 6 38 1 43 12 188 19 247 3 22 8
69 10 105 3 36 7 81 9 100 2 19 7 73 11 120 3 47 8 101 10 120 1 19 6 69 9
110 4 41 9 91 11 110 2 19 7 71 11 115 6 85 9 109 19 220 3 39 8 95 10 125 2
30 6 77 9 105 3 27 8 82 11 120 3 39 8 90 11 115 3 25 7 68 9 95 3 47 6 78 21
238 3 34 7 85 9 112 2 28 4 50 5 50 0 0 3 23 5 50 2 28 6 77 9 110 3 33 8 89
11 125 3 36 8 83 10 105 2 22 7 76 10 120 4 44 9 98 11 120 3 22 7 65 9 95 8
92 15 173 20 220 2 25 7 79 10 120 3 41 8 93 10 115 6 47 14 135 20 225 3 36
7 85 10 110 3 25 7 77 11 115 3 39 8 88 10 110 2 22 6 67 8 100 7 81 16 179
22 240 3 28 7 75 9 105 2 30 6 75 9 100 3 25 8 75 11 112 l6 68 -2977 0 -2976
0 6 -53z"/>
</g>
</svg>
