<svg id="svg2" xmlns="http://www.w3.org/2000/svg" xmlns:xlink="http://www.w3.org/1999/xlink" viewBox="0 0 476 960"><defs>
        <style>
            .cls-1,
            .cls-17,
            .cls-2,
            .cls-3,
            .cls-4 {
                fill-opacity: 1;
            }

            .cls-1,
            .cls-17,
            .cls-5 {
                stroke: #191919;
            }

            .cls-1 {
                stroke-width: 14px;
            }

            .cls-2 {
                fill: #fff;
            }

            .cls-17,
            .cls-3 {
                fill: #262626;
            }

            .cls-16,
            .cls-17,
            .cls-3 {
                opacity: 0.9;
            }

            .cls-16,
            .cls-17,
            .cls-3,
            .cls-4,
            .cls-6 {
                isolation: isolate;
            }

            .cls-4,
            .cls-6 {
                opacity: 0.5;
            }

            .cls-5 {
                fill: #212121;
            }

            .cls-17,
            .cls-5 {
                stroke-width: 5px;
            }

            .cls-6 {
                fill: none;
                stroke: #292929;
                stroke-linecap: round;
                stroke-linejoin: round;
                stroke-width: 6px;
            }

            .cls-7 {
                fill: url(#linear-gradient);
            }

            .cls-8 {
                fill: url(#linear-gradient-2);
            }

            .cls-9 {
                fill: url(#linear-gradient-3);
            }

            .cls-10 {
                fill: url(#linear-gradient-4);
            }

            .cls-11 {
                fill: url(#linear-gradient-5);
            }

            .cls-12 {
                fill: url(#linear-gradient-6);
            }

            .cls-13 {
                fill: url(#linear-gradient-7);
            }

            .cls-14 {
                fill: url(#linear-gradient-8);
            }

            .cls-15 {
                fill: url(#linear-gradient-9);
            }

            .cls-16 {
                fill: #191919;
            }

            .cls-18 {
                fill: url(#linear-gradient-10);
            }

            .cls-19 {
                fill: url(#linear-gradient-11);
            }

            .cls-20 {
                fill: url(#linear-gradient-12);
            }

            .cls-21 {
                fill: url(#linear-gradient-13);
            }

            .cls-22 {
                fill: url(#linear-gradient-14);
            }

            .cls-23 {
                fill: url(#linear-gradient-15);
            }

            .cls-24 {
                fill: url(#linear-gradient-16);
            }

            .cls-25 {
                fill: url(#linear-gradient-17);
            }

            .cls-26 {
                fill: url(#linear-gradient-18);
            }
        </style>
        <linearGradient id="linear-gradient" x1="868.81" y1="-371.97" x2="845.64" y2="-364.35" gradientTransform="matrix(0, -1, -1, 0, 230.66, 762.62)" gradientUnits="userSpaceOnUse">
            <stop offset="0" stop-color="#1a1a1a" />
            <stop offset="1" stop-opacity="0" />
        </linearGradient>
        <linearGradient id="linear-gradient-2" x1="887.94" y1="-59.04" x2="876.18" y2="-59.1" gradientTransform="matrix(0, -1, -1, 0, 531.22, 749.49)" xlink:href="#linear-gradient" />
        <linearGradient id="linear-gradient-3" x1="879.62" y1="-62.66" x2="815.54" y2="-57.07" gradientTransform="matrix(0, -1, -1, 0, 529.8, 743.3)" xlink:href="#linear-gradient" />
        <linearGradient id="linear-gradient-4" x1="886.41" y1="-85.11" x2="872.95" y2="-78.08" gradientTransform="matrix(0, -1, -1, 0, 531.22, 749.49)" xlink:href="#linear-gradient" />
        <linearGradient id="linear-gradient-5" x1="864.41" y1="-88.35" x2="819.69" y2="-37.38" gradientTransform="matrix(0, -1, -1, 0, 531.22, 749.49)" xlink:href="#linear-gradient" />
        <linearGradient id="linear-gradient-6" x1="867.25" y1="-77.73" x2="784.64" y2="-78.98" gradientTransform="matrix(0, -0.89, -0.89, 0, 527.14, 658.21)" xlink:href="#linear-gradient" />
        <linearGradient id="linear-gradient-7" x1="858.96" y1="-80.95" x2="791.2" y2="-76.95" gradientTransform="matrix(0, -0.89, -0.89, 0, 530.72, 672.02)" xlink:href="#linear-gradient" />
        <linearGradient id="linear-gradient-8" x1="252.8" y1="-418.65" x2="228.69" y2="-413.19" gradientTransform="matrix(0.14, -0.99, -0.99, -0.14, 169.34, 710.84)" xlink:href="#linear-gradient" />
        <linearGradient id="linear-gradient-9" x1="262.19" y1="-416.12" x2="239.92" y2="-415.71" gradientTransform="matrix(0.14, -0.99, -0.99, -0.14, 170.62, 700.58)" xlink:href="#linear-gradient" />
        <linearGradient id="linear-gradient-10" x1="868.82" y1="-57.93" x2="845.65" y2="-50.31" gradientTransform="translate(415.31 762.62) rotate(-90)" xlink:href="#linear-gradient" />
        <linearGradient id="linear-gradient-11" x1="887.94" y1="254.94" x2="876.18" y2="254.88" gradientTransform="translate(114.81 749.49) rotate(-90)" xlink:href="#linear-gradient" />
        <linearGradient id="linear-gradient-12" x1="879.62" y1="251.33" x2="815.54" y2="256.92" gradientTransform="translate(116.21 743.3) rotate(-90)" xlink:href="#linear-gradient" />
        <linearGradient id="linear-gradient-13" x1="886.4" y1="228.88" x2="872.94" y2="235.91" gradientTransform="translate(114.81 749.49) rotate(-90)" xlink:href="#linear-gradient" />
        <linearGradient id="linear-gradient-14" x1="864.4" y1="225.64" x2="819.68" y2="276.61" gradientTransform="translate(114.81 749.49) rotate(-90)" xlink:href="#linear-gradient" />
        <linearGradient id="linear-gradient-15" x1="867.25" y1="273.79" x2="784.64" y2="272.54" gradientTransform="translate(118.85 658.21) rotate(-90) scale(0.89)" xlink:href="#linear-gradient" />
        <linearGradient id="linear-gradient-16" x1="858.96" y1="270.59" x2="791.2" y2="274.59" gradientTransform="translate(115.25 672.02) rotate(-90) scale(0.89)" xlink:href="#linear-gradient" />
        <linearGradient id="linear-gradient-17" x1="209.46" y1="-107.69" x2="185.35" y2="-102.23" gradientTransform="translate(476.7 710.84) rotate(-97.93)" xlink:href="#linear-gradient" />
        <linearGradient id="linear-gradient-18" x1="218.86" y1="-105.13" x2="196.59" y2="-104.72" gradientTransform="translate(475.4 700.58) rotate(-97.93)" xlink:href="#linear-gradient" />
    </defs>
    <title>car-dragon</title>
    <g id="layer1">
        <g id="g3890">
            <path id="path3855" class="cls-1" d="M249,160.41a24.68,24.68,0,0,0,.94,6.47l1.5,3.5,35.94-8.66.28,124.81c0,2.44,0,4.89,0,7.34q-.06,7.38-.22,14.85c-.17,7.29-.41,14.67-.72,22.06,0,.4-.05.79-.06,1.19-.63,14.93-1.49,30-2.44,45-1.28,20.33-2.71,40.52-3.87,60.12-.87,14.53-1.58,28.74-2,42.38-.29,9.37-.46,18.46-.41,27.25,0,4.31.09,8.57.22,12.72s.35,8.38.65,12.65c.15,2.14.31,4.28.5,6.44.57,6.47,1.33,13.05,2.19,19.59v0c.58,4.37,1.23,8.71,1.91,13.06s1.4,8.67,2.15,12.93,1.57,8.48,2.38,12.6v0c.4,2.07.8,4.07,1.22,6.09,1.24,6.07,2.51,11.94,3.78,17.5v0q1.26,5.58,2.5,10.72c1.65,6.87,3.23,13.12,4.65,18.53,2.14,8.13,3.93,14.39,5,18.1.72,2.47,1.13,3.81,1.13,3.81l3.75,13.69a8.06,8.06,0,0,0,1.31,2.62,10.7,10.7,0,0,0,.69.85,18.23,18.23,0,0,0,3.84,3.15h0c.79.5,1.65,1,2.57,1.5h0q1.38.72,3,1.41h0c8.51,3.67,21.13,6.62,36.22,8.94h0l.72.09c3.33.51,6.8,1,10.34,1.44l.72.09c4,.5,8.2,1,12.47,1.38h0c2.13.21,4.3.43,6.47.62h0c2.17.2,4.35.39,6.56.56,0,0,0,0,0,0,4.44.36,9,.68,13.5,1h0c13.68.88,27.78,1.46,41.56,1.78h0c9.19.22,18.21.32,26.91.32l2.93,0,2.94,0c8.69,0,17.72-.1,26.91-.32h0c13.77-.32,27.88-.9,41.56-1.78h0q6.84-.43,13.5-1s0,0,0,0c2.22-.17,4.39-.36,6.56-.56h0c2.17-.19,4.34-.41,6.46-.62h0c4.26-.43,8.42-.88,12.46-1.38l.72-.09c3.55-.45,7-.93,10.35-1.44l.72-.09h0c15.08-2.32,27.71-5.27,36.22-8.94h0q1.57-.69,3-1.41h0c.92-.47,1.78-1,2.56-1.5h0a18.31,18.31,0,0,0,3.85-3.15,10.54,10.54,0,0,0,.68-.85,8.09,8.09,0,0,0,1.32-2.62l3.75-13.69s.4-1.34,1.12-3.81c1.07-3.71,2.87-10,5-18.09,1.42-5.42,3-11.67,4.66-18.54q1.23-5.14,2.5-10.71s0,0,0,0c1.26-5.56,2.54-11.43,3.78-17.5.41-2,.81-4,1.22-6.09,0,0,0,0,0,0,.81-4.12,1.61-8.34,2.37-12.6s1.48-8.59,2.16-12.93,1.33-8.69,1.9-13.06v0c.87-6.54,1.62-13.12,2.19-19.59.19-2.16.35-4.3.5-6.44.3-4.27.53-8.5.66-12.65s.19-8.41.22-12.72c0-8.79-.12-17.88-.41-27.25-.42-13.64-1.13-27.85-2-42.38-1.17-19.6-2.59-39.79-3.88-60.12-.94-15-1.8-30.1-2.43-45,0-.4,0-.79-.07-1.19-.3-7.39-.55-14.77-.71-22.06q-.18-7.47-.22-14.85c0-2.45,0-4.9,0-7.34l.28-124.81,35.94,8.66,1.5-3.5a24.65,24.65,0,0,0,.93-6.47,13.41,13.41,0,0,0-.25-2.69c-.06-.31-.14-.62-.22-.94s-.15-.63-.25-.93a18.36,18.36,0,0,0-.68-1.88,14.09,14.09,0,0,0-3.32-4.78l0,0a8.16,8.16,0,0,0-2.28-1.47l-31.31-12.16.25-109.94c.37-.74.74-1.47,1.09-2.21a94.37,94.37,0,0,0,3.63-8.85c.51-1.46,1-2.92,1.4-4.37a100.88,100.88,0,0,0,3.25-15.35q.6-4.41.91-8.93c.11-1.51.18-3,.25-4.57.14-3,.21-6.14.25-9.31.08-6.35,0-13,0-20a275,275,0,0,0-1.56-29.78q-.61-5.67-1.47-11.13a209.51,209.51,0,0,0-4.38-20.9c-.43-1.67-.89-3.34-1.37-5-1.43-4.9-3-9.61-4.78-14.19-.59-1.52-1.16-3-1.78-4.53q-1.86-4.47-3.94-8.72-1-2.13-2.13-4.22c-1.44-2.76-3-5.46-4.56-8.09-.79-1.31-1.61-2.6-2.44-3.87a146.41,146.41,0,0,0-13.53-17.91,147.1,147.1,0,0,0-12.47-12.5h0c-1.09-1-2.19-1.94-3.31-2.88h0c-1.12-.93-2.26-1.87-3.41-2.78h0c-3.46-2.72-7-5.31-10.72-7.75h0c-1.23-.81-2.46-1.63-3.72-2.4h0c-3.78-2.34-7.65-4.57-11.65-6.63h0q-2-1-4-2h0c-1.35-.65-2.71-1.31-4.09-1.93h0c-2.76-1.25-5.55-2.44-8.41-3.57h0c-1.42-.56-2.87-1.09-4.31-1.62h0c-1.45-.53-2.91-1.06-4.38-1.56s-3-1-4.44-1.47h0c-1.49-.47-3-.94-4.5-1.38h0c-1.51-.44-3-.87-4.56-1.28h0c-4.61-1.24-9.31-2.37-14.1-3.34h0c-1.59-.33-3.2-.61-4.81-.91h0a287.56,287.56,0,0,0-35.22-4.16h0l-5.22-.25h0c-3.5-.14-7-.24-10.56-.28h-5.41L480-235l-1.9,0h-5.41c-3.55,0-7.06.14-10.56.28h0l-5.22.25h0a287.56,287.56,0,0,0-35.22,4.16h0c-1.61.3-3.22.58-4.81.91h0c-4.79,1-9.49,2.1-14.1,3.34h0c-1.53.41-3.05.84-4.56,1.28h0c-1.51.44-3,.91-4.5,1.38h0c-1.49.47-3,1-4.44,1.47s-2.93,1-4.38,1.56h0c-1.44.53-2.89,1.06-4.31,1.62h0c-2.86,1.13-5.65,2.32-8.41,3.57h0c-1.38.62-2.74,1.28-4.09,1.93h0q-2,1-4,2h0c-4,2.06-7.88,4.29-11.65,6.63h0c-1.26.77-2.49,1.59-3.72,2.4h0c-3.7,2.44-7.26,5-10.72,7.75h0c-1.15.91-2.29,1.85-3.41,2.78h0c-1.12.94-2.22,1.91-3.31,2.88h0a148.47,148.47,0,0,0-12.46,12.5,146.48,146.48,0,0,0-13.54,17.91c-.82,1.27-1.64,2.56-2.43,3.87q-2.39,3.94-4.57,8.09-1.08,2.08-2.12,4.22-2.07,4.26-3.94,8.72c-.62,1.49-1.19,3-1.78,4.53-1.75,4.58-3.35,9.29-4.78,14.19-.48,1.63-.94,3.3-1.38,5a212.39,212.39,0,0,0-4.37,20.9q-.86,5.46-1.47,11.13A275,275,0,0,0,276.32-48c0,7-.08,13.65,0,20,0,3.17.11,6.26.25,9.31.07,1.53.14,3.06.25,4.57.21,3,.5,6,.9,8.93A103.36,103.36,0,0,0,281,10.16c.43,1.45.9,2.91,1.41,4.37,1,2.93,2.23,5.87,3.62,8.85.35.74.72,1.47,1.1,2.21l.25,109.94L256,147.69a8.16,8.16,0,0,0-2.28,1.47l0,0a14.21,14.21,0,0,0-3.31,4.78c-.26.61-.49,1.25-.69,1.88-.09.3-.17.63-.25.93s-.16.63-.21.94a13.41,13.41,0,0,0-.25,2.69Z" transform="translate(-242 242.01)" />
            <path id="path2853" class="cls-2" d="M249,160.41a24.68,24.68,0,0,0,.94,6.47l1.5,3.5,35.84-8.66.28,124.81c.17,78-11.5,166.52-9.5,232.93s28,152.12,28,152.12l3.79,13.69C315.14,704.52,407.21,711,476.63,711c1.11,0,2.25,0,3.37,0s2.26,0,3.38,0c69.41,0,161.48-6.47,166.78-25.72l3.78-13.69s26-85.71,28-152.12-9.67-155-9.5-232.93l.28-124.81,35.84,8.66,1.5-3.5a24.68,24.68,0,0,0,.94-6.47,14.18,14.18,0,0,0-.25-2.69c-.06-.31-.14-.62-.22-.94s-.16-.63-.25-.93a16.32,16.32,0,0,0-.69-1.88,14,14,0,0,0-3.28-4.78l0,0a8.3,8.3,0,0,0-2.28-1.47l-31.25-12.16L673,25.59C684.94,1.69,683.72-19.92,683.72-48c0-133.25-86.59-187.63-201.38-187L480-235l-2.35,0c-114.79-.63-201.38,53.75-201.38,187,0,28.08-1.22,49.69,10.72,73.59l.25,109.94L256,147.69a8.3,8.3,0,0,0-2.28,1.47l0,0A14,14,0,0,0,250.4,154a16.32,16.32,0,0,0-.69,1.88c-.09.3-.18.63-.25.93s-.16.63-.22.94a15,15,0,0,0-.25,2.69Z" transform="translate(-242 242.01)" />
            <path id="path3643" class="cls-3" d="M610.55,370.59a868.1,868.1,0,0,0,5.06,94.81c48.72-25.66,30.27-98,31.54-205.56.58-49.69,1.87-89.54,2.37-121.53-23.33,47.16-39,133.53-39,232.28Z" transform="translate(-242 242.01)" />
            <path id="path3658" class="cls-4" d="M610.55,370.59c0,3.21,0,6.38.06,9.56,16.18-.82,30.26-6.43,38.85-14.59-.08-4.67-.2-9.5-.35-14.44-8.19,8.57-22.22,14.59-38.56,15.72v3.75Z" transform="translate(-242 242.01)" />
            <path id="path3707" class="cls-5" d="M582.81-218.09l.6,5.09c2.51,21.55,26,37.69,54.53,39.28l7.12.38-4.84-5.25A161,161,0,0,0,587.47-216l-4.65-2.09Z" transform="translate(-242 242.01)" />
            <path id="path3715" class="cls-6" d="M593.81-12.54s-22.59-79.68-32-105.38c-9.8-26.84-39.15-98.86-39.15-98.86S565.15-208,580.6-186.3c54.87,77.23,53.85,232.69,53.85,232.69" transform="translate(-242 242.01)" />
            <path id="path3757" class="cls-7" d="M573.15-99l2.35,4.44A14,14,0,0,1,579.34-97c11.72-4.8,29.24,10.74,35.78,26.88.21.51.84,1.81,1.66,3.4L612.9-80.32c-8.46-17.31-23.08-27.47-34-23A14.61,14.61,0,0,0,573.15-99Z" transform="translate(-242 242.01)" />
            <path id="path3787" class="cls-8" d="M568.69-107.62l2.35,4.44a14,14,0,0,1,3.84-2.38c11.72-4.8,29.24,10.74,35.78,26.88.21.51.84,1.81,1.66,3.4L608.44-88.9c-8.46-17.31-23.08-27.47-34-23a14.61,14.61,0,0,0-5.75,4.28Z" transform="translate(-242 242.01)" />
            <path id="path3752" class="cls-9" d="M567.27-113.81l2.35,4.44a14,14,0,0,1,3.84-2.38c11.72-4.8,29.24,10.74,35.78,26.88.21.51.84,1.81,1.66,3.4L607-95.09c-8.46-17.31-23.08-27.47-34-23a14.61,14.61,0,0,0-5.75,4.28Z" transform="translate(-242 242.01)" />
            <path id="path3735" class="cls-10" d="M563-130.72l1.85,6.19a18.37,18.37,0,0,1,5.46-2c16-3.11,34.29,21,38.5,43,.65,3.39,8.58,28.88,8.81,32.15h4.12L609.6-92.82c-5.5-26.28-22.45-44.94-38.25-41.87a19,19,0,0,0-8.35,4Z" transform="translate(-242 242.01)" />
            <path id="path3783" class="cls-11" d="M563-130.72l1.85,6.19a18.37,18.37,0,0,1,5.46-2c16-3.11,34.29,21,38.5,43,.65,3.39,8.58,28.88,8.81,32.15h4.12L609.6-92.82c-5.5-26.28-22.45-44.94-38.25-41.87a19,19,0,0,0-8.35,4Z" transform="translate(-242 242.01)" />
            <path id="path3799" class="cls-12" d="M577.77-86.19l2.1,4a12.77,12.77,0,0,1,3.43-2.12c10.47-4.28,26.12,9.59,32,24,.19.46.75,1.62,1.48,3l-3.46-12.17C605.73-84.93,592.66-94,582.91-90a13.21,13.21,0,0,0-5.14,3.83Z" transform="translate(-242 242.01)" />
            <path id="path3803" class="cls-13" d="M581.34-72.39l2.1,4a12.77,12.77,0,0,1,3.43-2.12c10.47-4.28,26.12,9.59,32,24,.19.46.75,1.62,1.48,3l-3.46-12.17c-7.55-15.46-20.62-24.54-30.37-20.55a13.21,13.21,0,0,0-5.14,3.83Z" transform="translate(-242 242.01)" />
            <path id="rect3861" class="cls-14" d="M601,537.66c-2-8.29-1.48-15.49,5.79-19.8l17.9,2.5c6.17,6.87,4.95,13.75.15,20.62L601,537.66Z" transform="translate(-242 242.01)" />
            <path id="path3864" class="cls-15" d="M604.3,517.39c-1.21-8.15-.57-15.17,5.51-18.84l17,2.37c3,6.48,5.21,13,.15,19.63l-22.69-3.16Z" transform="translate(-242 242.01)" />
            <path id="path4025" class="cls-16" d="M608.06,370.59a871,871,0,0,0,5.06,95.09l.41,3.66,3.25-1.72c12.66-6.67,21.11-16.56,26.44-29.06s7.61-27.57,8.44-45.1c1.65-35-2.63-79.95-2-133.59.58-49.65,1.87-89.5,2.37-121.53l-4.75-1.12c-23.68,47.84-39.22,134.34-39.22,233.36Zm5,0c0-91.17,13.48-171.75,33.72-220.09-.58,29.95-1.61,65.21-2.12,109.31-.64,53.94,3.65,99,2,133.4-.81,17.21-3.11,31.77-8.07,43.4a51.25,51.25,0,0,1-20.9,24.5,867.85,867.85,0,0,1-4.66-90.53Z" transform="translate(-242 242.01)" />
            <path id="rect2864" class="cls-17" d="M362.69,510.43l12.47,77.75c4.36,27.15,48.77,48.94,104.84,51,56.07-2.06,100.49-23.85,104.84-51l12.47-77.75a23.94,23.94,0,0,0-24-24H386.69a23.94,23.94,0,0,0-24,24Z" transform="translate(-242 242.01)" />
            <path id="path3703" class="cls-17" d="M328.47,79a40.45,40.45,0,0,0,1,8.78l0,0,12.31,63.84c6.61,17.73,14.27,32,32,32H586.28c17.73,0,25.4-14.27,32-32l12.31-63.84,0,0a40.45,40.45,0,0,0,1-8.78c0-45.4-57.36-82.2-151.53-82.31C385.83-3.23,328.47,33.57,328.47,79Z" transform="translate(-242 242.01)" />
            <path id="path4157" class="cls-3" d="M349.46,370.59a868.1,868.1,0,0,1-5.06,94.81c-48.71-25.66-30.27-98-31.53-205.56-.59-49.69-1.88-89.54-2.38-121.53,23.34,47.16,39,133.53,39,232.28Z" transform="translate(-242 242.01)" />
            <path id="path4159" class="cls-4" d="M349.46,370.59c0,3.21,0,6.38-.06,9.56-16.17-.82-30.26-6.43-38.84-14.59.07-4.67.19-9.5.34-14.44,8.19,8.57,22.23,14.59,38.56,15.72,0,1.25,0,2.49,0,3.75Z" transform="translate(-242 242.01)" />
            <path id="path4161" class="cls-5" d="M377.2-218.09l-.59,5.09c-2.51,21.55-26,37.69-54.53,39.28l-7.13.38,4.85-5.25A160.9,160.9,0,0,1,372.55-216l4.65-2.09Z" transform="translate(-242 242.01)" />
            <path id="path4163" class="cls-6" d="M366.2-12.54s22.6-79.68,32-105.38c9.81-26.84,39.15-98.86,39.15-98.86S394.86-208,379.41-186.3c-54.87,77.23-53.86,232.69-53.86,232.69" transform="translate(-242 242.01)" />
            <path id="path4165" class="cls-18" d="M386.86-99l-2.34,4.44A14.16,14.16,0,0,0,380.67-97c-11.71-4.8-29.23,10.74-35.78,26.88-.21.51-.84,1.81-1.65,3.4l3.87-13.62c8.46-17.31,23.08-27.47,34-23A14.54,14.54,0,0,1,386.86-99Z" transform="translate(-242 242.01)" />
            <path id="path4167" class="cls-19" d="M391.32-107.62,389-103.18a14.16,14.16,0,0,0-3.85-2.38c-11.71-4.8-29.23,10.74-35.78,26.88-.21.51-.84,1.81-1.65,3.4l3.87-13.62c8.46-17.31,23.08-27.47,34-23a14.54,14.54,0,0,1,5.75,4.28Z" transform="translate(-242 242.01)" />
            <path id="path4169" class="cls-20" d="M392.73-113.81l-2.34,4.44a14.16,14.16,0,0,0-3.85-2.38c-11.71-4.8-29.23,10.74-35.78,26.88-.21.51-.84,1.81-1.65,3.4L353-95.09c8.46-17.31,23.08-27.47,34-23a14.54,14.54,0,0,1,5.75,4.28Z" transform="translate(-242 242.01)" />
            <path id="path4171" class="cls-21" d="M397-130.72l-1.84,6.19a18.33,18.33,0,0,0-5.47-2c-16-3.11-34.28,21-38.5,43-.65,3.39-8.58,28.88-8.8,32.15h-4.13l12.15-41.44c5.49-26.28,22.45-44.94,38.25-41.87a19,19,0,0,1,8.34,4Z" transform="translate(-242 242.01)" />
            <path id="path4173" class="cls-22" d="M397-130.72l-1.84,6.19a18.33,18.33,0,0,0-5.47-2c-16-3.11-34.28,21-38.5,43-.65,3.39-8.58,28.88-8.8,32.15h-4.13l12.15-41.44c5.49-26.28,22.45-44.94,38.25-41.87a19,19,0,0,1,8.34,4Z" transform="translate(-242 242.01)" />
            <path id="path4175" class="cls-23" d="M382.24-86.19l-2.09,4a12.82,12.82,0,0,0-3.44-2.12c-10.46-4.28-26.11,9.59-32,24-.19.46-.75,1.62-1.48,3l3.46-12.17C354.29-84.93,367.35-94,377.11-90a13.18,13.18,0,0,1,5.13,3.83Z" transform="translate(-242 242.01)" />
            <path id="path4177" class="cls-24" d="M378.67-72.39l-2.09,4a12.82,12.82,0,0,0-3.44-2.12c-10.46-4.28-26.11,9.59-32,24-.19.46-.75,1.62-1.48,3l3.46-12.17c7.56-15.46,20.62-24.54,30.38-20.55a13.18,13.18,0,0,1,5.13,3.83Z" transform="translate(-242 242.01)" />
            <path id="path4179" class="cls-25" d="M359,537.66c2-8.29,1.48-15.49-5.79-19.8l-17.89,2.5c-6.18,6.87-5,13.75-.16,20.62L359,537.66Z" transform="translate(-242 242.01)" />
            <path id="path4181" class="cls-26" d="M355.71,517.39c1.21-8.15.57-15.17-5.51-18.84l-17,2.37c-3,6.48-5.21,13-.15,19.63l22.69-3.16Z" transform="translate(-242 242.01)" />
            <path id="path4183" class="cls-16" d="M352,370.59a871,871,0,0,1-5.06,95.09l-.41,3.66-3.25-1.72c-12.66-6.67-21.11-16.56-26.43-29.06s-7.62-27.57-8.44-45.1c-1.65-35,2.63-79.95,2-133.59-.59-49.65-1.88-89.5-2.38-121.53l4.75-1.12C336.41,185.07,352,271.58,352,370.59Zm-5,0c0-91.17-13.48-171.75-33.72-220.09.59,29.95,1.61,65.21,2.13,109.31.63,53.94-3.65,99-2,133.4.81,17.21,3.1,31.77,8.06,43.4a51.22,51.22,0,0,0,20.91,24.5A867.94,867.94,0,0,0,347,370.58Z" transform="translate(-242 242.01)" />
        </g>
    </g>
    <g id="g4">
        <path id="path6" d="M591.59,335.73c3.3-7.31,5.06-15.07,3.1-21.27-2.57-8.12-9.79-14-17.43-17.77-5.31-2.61-30.89-10.95-28.19-15.61,4.5-7.77-4.34-11.89-9.62-17.49-14.06-14.94-19.14-21.83-33.35-30.38-13.71-8.24-32.21-9.51-42.63-8.79,27.78,3.88,51.9,17.86,41.51,29.14-5.67,6.15-17.8,5.3-38.54-2.06-21.87-7.77-50.62-21.51-64.17-47.67,6.08,31.11,42.59,50,68.48,60.29-12.29,3.2-19.53,5.23-33.67,12.45-19.8-5.05-41.12-5.9-60.47,14,20.3-9.95,36.09-10.87,41.55-3.29-9.07,6.63-15.41,12.29-21,20.14-18.64,5.8-29,11.75-34.17,28.13,8-12.28,17.52-17.79,26.18-14.14a65.23,65.23,0,0,0-4.61,27.67c-8.12,6.65-13.81,15.59-15.17,36.91,4.65-17.52,11-24.31,16.68-23.68.11.6.22,1.2.34,1.81a88,88,0,0,0,7.21,21.41c-7,7.21-10.89,16.89-8.6,41.67.64-17,5-29.68,14.36-31.9,4.59,7.15,11.87,18.31,17.2,26.74,3.43,5.42,5.08,13.73,4.7,22.45H538.05c8.1-46.28-57.44-62-74.54-76.91-7.74-6.75-13.57-20.9-11.09-30.87,3.17-12.68,12.64-24.42,24.11-28.64,4.86,4.23,7.54,6.17,9.43,12.32,5.81,18.9,9.09,28,35.46,43.36,7.35,4.3,14.91,1.82,21.46.91-4.11-1-7.67-1.13-11.78-2.11a11.42,11.42,0,0,0,7.57-6.33q-7.78,4.61-18.81-1.63a49.59,49.59,0,0,0,11.44-4.27c-5.4.3-13.37-.63-15.86-3.17-2-2.08-4.35-5.27-5.11-8.09,4.3,2.6,9.54.28,13.11,0-6-1.09-16.3-6.39-18.88-10.84-4.62-7.94-8-15.29-8.83-23,9.83,9.51,20.33,20.36,29.63,29.3,10.88,10.46,24.22,18.29,36.94,20.29,10.22,1.6,12.67,2.49,19.9,10.67-3.56-12.1-13.15-12.45-18.12-14.23,7.34-.36,14.68.35,23.09,5.69-7.93-10-16.21-9-24.51-8.9-8.58.11-21.32-4.28-31.27-14.59s-18.55-18.62-27.95-33.13c10.78,3.06,21.05,9.3,24.52,20.87a24.93,24.93,0,0,0-3.24-17.54c5.65-.58,14.7,8.93,23.24,23.53.06-5.19.72-9.16-1.42-16.85,9.13,1.52,14.36,6.25,19.58,16.85,2.3-4.13,3.41-9.07-.46-14.65,10.52,2.29,13.08,11,17.06,19.49a92.73,92.73,0,0,1,2.86-10.69c2.28-.07,5.94,3.62,6,14.33ZM579,302.35c1.81.91,4.74,3,5.2,6.22-1.76-1.19-3.25-.15-6-2.3-2.57-2-3.19-3.54-4.52-4.11A8.94,8.94,0,0,1,579,302.35ZM524.1,269c5.17,2.58,6,4.2,9.59,11.18-5.37-4.16-8.33-.38-12.37-3.49-3.74-2.88-6.41-7-11.35-8.62,5.11-1.28,10.77-.75,14.13.93Z" transform="translate(-242 242.01)" />
    </g>
    <g id="g4198">
        <path id="path4200" d="M405.12-100.7c-2.18,4.83-3.34,10-2.05,14,1.7,5.37,6.47,9.25,11.51,11.73,3.51,1.73,20.4,7.24,18.62,10.31-3,5.14,2.86,7.85,6.35,11.55,9.28,9.86,12.64,14.41,22,20.06,9.05,5.44,21.27,6.28,28.15,5.8C471.37-29.77,455.45-39,462.31-46.44c3.74-4.07,11.75-3.51,25.44,1.35,14.44,5.13,33.43,14.2,42.37,31.48-4-20.54-28.12-33-45.21-39.81,8.11-2.11,12.89-3.46,22.23-8.22,13.07,3.33,27.15,3.9,39.92-9.27-13.4,6.57-23.82,7.18-27.43,2.17,6-4.38,10.18-8.11,13.83-13.3,12.31-3.82,19.18-7.75,22.56-18.57-5.25,8.11-11.56,11.75-17.28,9.34a43,43,0,0,0,3-18.27c5.36-4.39,9.12-10.29,10-24.37-3.07,11.57-7.26,16-11,15.63-.08-.39-.15-.79-.23-1.19a58.11,58.11,0,0,0-4.76-14.14c4.6-4.76,7.19-11.15,5.68-27.51-.42,11.22-3.3,19.59-9.48,21.06-3-4.72-7.84-12.09-11.36-17.65-2.27-3.59-3.35-9.07-3.1-14.82H440.47c-5.35,30.55,37.93,40.92,49.22,50.77,5.11,4.46,9,13.81,7.32,20.38-2.09,8.38-8.35,16.13-15.92,18.91-3.21-2.79-5-4.07-6.22-8.13-3.84-12.48-6-18.46-23.42-28.63-4.85-2.83-9.84-1.2-14.17-.6,2.71.64,5.07.75,7.78,1.39a7.53,7.53,0,0,0-5,4.19q5.13-3,12.41,1.07a32.67,32.67,0,0,0-7.55,2.82c3.57-.2,8.83.42,10.47,2.09a13.93,13.93,0,0,1,3.37,5.34c-2.83-1.71-6.29-.18-8.65,0,3.93.72,10.76,4.22,12.47,7.16,3.05,5.24,5.25,10.09,5.83,15.16C461.93-86.88,455-94,448.85-99.95c-7.18-6.91-16-12.07-24.39-13.39-6.75-1.06-8.37-1.65-13.14-7,2.35,8,8.68,8.22,12,9.4A24.2,24.2,0,0,1,408-114.75c5.24,6.58,10.7,5.94,16.18,5.87,5.67-.07,14.08,2.83,20.65,9.64s12.24,12.29,18.45,21.87c-7.11-2-13.9-6.14-16.19-13.78a16.49,16.49,0,0,0,2.14,11.58c-3.73.38-9.7-5.89-15.34-15.53,0,3.43-.48,6,.94,11.12-6-1-9.49-4.12-12.93-11.12-1.52,2.72-2.25,6,.3,9.67C415.3-86.94,413.6-92.71,411-98.3a60.55,60.55,0,0,1-1.89,7.06c-1.51,0-3.92-2.39-4-9.46Zm8.35,22c-1.2-.6-3.13-2-3.43-4.11,1.15.79,2.14.1,3.93,1.52s2.11,2.34,3,2.71A5.87,5.87,0,0,1,413.47-78.66Zm36.22,22c-3.42-1.71-4-2.77-6.34-7.38,3.55,2.74,5.5.25,8.17,2.3,2.47,1.9,4.23,4.62,7.49,5.69a14.6,14.6,0,0,1-9.32-.61Z" transform="translate(-242 242.01)" />
    </g></svg>
