<svg xmlns="http://www.w3.org/2000/svg" xmlns:xlink="http://www.w3.org/1999/xlink" viewBox="0 0 476 960"><defs>
        <style>
            .cls-1,
            .cls-17,
            .cls-2,
            .cls-3,
            .cls-4 {
                fill-opacity: 1;
            }

            .cls-1,
            .cls-17,
            .cls-5 {
                stroke: #191919;
            }

            .cls-1 {
                stroke-width: 14px;
            }

            .cls-2,
            .cls-27,
            .cls-29 {
                fill: #fff;
            }

            .cls-17,
            .cls-3 {
                fill: #262626;
            }

            .cls-16,
            .cls-17,
            .cls-3 {
                opacity: 0.9;
            }

            .cls-16,
            .cls-17,
            .cls-3,
            .cls-4,
            .cls-6 {
                isolation: isolate;
            }

            .cls-4,
            .cls-6 {
                opacity: 0.5;
            }

            .cls-5 {
                fill: #212121;
            }

            .cls-17,
            .cls-5 {
                stroke-width: 5px;
            }

            .cls-6 {
                fill: none;
                stroke: #292929;
                stroke-linecap: round;
                stroke-linejoin: round;
                stroke-width: 6px;
            }

            .cls-7 {
                fill: url(#linear-gradient);
            }

            .cls-8 {
                fill: url(#linear-gradient-2);
            }

            .cls-9 {
                fill: url(#linear-gradient-3);
            }

            .cls-10 {
                fill: url(#linear-gradient-4);
            }

            .cls-11 {
                fill: url(#linear-gradient-5);
            }

            .cls-12 {
                fill: url(#linear-gradient-6);
            }

            .cls-13 {
                fill: url(#linear-gradient-7);
            }

            .cls-14 {
                fill: url(#linear-gradient-8);
            }

            .cls-15 {
                fill: url(#linear-gradient-9);
            }

            .cls-16 {
                fill: #191919;
            }

            .cls-18 {
                fill: url(#linear-gradient-10);
            }

            .cls-19 {
                fill: url(#linear-gradient-11);
            }

            .cls-20 {
                fill: url(#linear-gradient-12);
            }

            .cls-21 {
                fill: url(#linear-gradient-13);
            }

            .cls-22 {
                fill: url(#linear-gradient-14);
            }

            .cls-23 {
                fill: url(#linear-gradient-15);
            }

            .cls-24 {
                fill: url(#linear-gradient-16);
            }

            .cls-25 {
                fill: url(#linear-gradient-17);
            }

            .cls-26 {
                fill: url(#linear-gradient-18);
            }

            .cls-27,
            .cls-28,
            .cls-29,
            .cls-30 {
                stroke: #000;
                stroke-miterlimit: 10;
            }

            .cls-27,
            .cls-28 {
                stroke-width: 0.07px;
            }

            .cls-29,
            .cls-30 {
                stroke-width: 0.05px;
            }
        </style>
        <linearGradient id="linear-gradient" x1="868.81" y1="-371.97" x2="845.64" y2="-364.35" gradientTransform="matrix(0, -1, -1, 0, 230.66, 762.62)" gradientUnits="userSpaceOnUse">
            <stop offset="0" stop-color="#1a1a1a" />
            <stop offset="1" stop-opacity="0" />
        </linearGradient>
        <linearGradient id="linear-gradient-2" x1="887.94" y1="-59.04" x2="876.18" y2="-59.1" gradientTransform="matrix(0, -1, -1, 0, 531.22, 749.49)" xlink:href="#linear-gradient" />
        <linearGradient id="linear-gradient-3" x1="879.62" y1="-62.66" x2="815.54" y2="-57.07" gradientTransform="matrix(0, -1, -1, 0, 529.8, 743.3)" xlink:href="#linear-gradient" />
        <linearGradient id="linear-gradient-4" x1="886.41" y1="-85.11" x2="872.95" y2="-78.08" gradientTransform="matrix(0, -1, -1, 0, 531.22, 749.49)" xlink:href="#linear-gradient" />
        <linearGradient id="linear-gradient-5" x1="864.41" y1="-88.35" x2="819.69" y2="-37.38" gradientTransform="matrix(0, -1, -1, 0, 531.22, 749.49)" xlink:href="#linear-gradient" />
        <linearGradient id="linear-gradient-6" x1="867.25" y1="-77.73" x2="784.64" y2="-78.98" gradientTransform="matrix(0, -0.89, -0.89, 0, 527.14, 658.21)" xlink:href="#linear-gradient" />
        <linearGradient id="linear-gradient-7" x1="858.96" y1="-80.95" x2="791.2" y2="-76.95" gradientTransform="matrix(0, -0.89, -0.89, 0, 530.72, 672.02)" xlink:href="#linear-gradient" />
        <linearGradient id="linear-gradient-8" x1="252.8" y1="-418.65" x2="228.69" y2="-413.19" gradientTransform="matrix(0.14, -0.99, -0.99, -0.14, 169.34, 710.84)" xlink:href="#linear-gradient" />
        <linearGradient id="linear-gradient-9" x1="262.19" y1="-416.12" x2="239.92" y2="-415.71" gradientTransform="matrix(0.14, -0.99, -0.99, -0.14, 170.62, 700.58)" xlink:href="#linear-gradient" />
        <linearGradient id="linear-gradient-10" x1="868.82" y1="-57.93" x2="845.65" y2="-50.31" gradientTransform="translate(415.31 762.62) rotate(-90)" xlink:href="#linear-gradient" />
        <linearGradient id="linear-gradient-11" x1="887.94" y1="254.94" x2="876.18" y2="254.88" gradientTransform="translate(114.81 749.49) rotate(-90)" xlink:href="#linear-gradient" />
        <linearGradient id="linear-gradient-12" x1="879.62" y1="251.33" x2="815.54" y2="256.92" gradientTransform="translate(116.21 743.3) rotate(-90)" xlink:href="#linear-gradient" />
        <linearGradient id="linear-gradient-13" x1="886.4" y1="228.88" x2="872.94" y2="235.91" gradientTransform="translate(114.81 749.49) rotate(-90)" xlink:href="#linear-gradient" />
        <linearGradient id="linear-gradient-14" x1="864.4" y1="225.64" x2="819.68" y2="276.61" gradientTransform="translate(114.81 749.49) rotate(-90)" xlink:href="#linear-gradient" />
        <linearGradient id="linear-gradient-15" x1="867.25" y1="273.79" x2="784.64" y2="272.54" gradientTransform="translate(118.85 658.21) rotate(-90) scale(0.89)" xlink:href="#linear-gradient" />
        <linearGradient id="linear-gradient-16" x1="858.96" y1="270.59" x2="791.2" y2="274.59" gradientTransform="translate(115.25 672.02) rotate(-90) scale(0.89)" xlink:href="#linear-gradient" />
        <linearGradient id="linear-gradient-17" x1="209.46" y1="-107.69" x2="185.35" y2="-102.23" gradientTransform="translate(476.7 710.84) rotate(-97.93)" xlink:href="#linear-gradient" />
        <linearGradient id="linear-gradient-18" x1="218.86" y1="-105.13" x2="196.59" y2="-104.72" gradientTransform="translate(475.4 700.58) rotate(-97.93)" xlink:href="#linear-gradient" />
    </defs>
    <title>car-wolf</title>
    <g id="g4203">
        <g id="layer1">
            <g id="g3890">
                <path id="path3855" class="cls-1" d="M249,160.41a24.68,24.68,0,0,0,.94,6.47l1.5,3.5,35.94-8.66.28,124.81c0,2.44,0,4.89,0,7.34q-.06,7.38-.22,14.85c-.17,7.29-.41,14.67-.72,22.06,0,.4-.05.79-.06,1.19-.63,14.93-1.49,30-2.44,45-1.28,20.33-2.71,40.52-3.87,60.12-.87,14.53-1.58,28.74-2,42.38-.29,9.37-.46,18.46-.41,27.25,0,4.31.09,8.57.22,12.72s.35,8.38.65,12.65c.15,2.14.31,4.28.5,6.44.57,6.47,1.33,13.05,2.19,19.59v0c.58,4.37,1.23,8.71,1.91,13.06s1.4,8.67,2.15,12.93,1.57,8.48,2.38,12.6v0c.4,2.07.8,4.07,1.22,6.09,1.24,6.07,2.51,11.94,3.78,17.5v0q1.26,5.58,2.5,10.72c1.65,6.87,3.23,13.12,4.65,18.53,2.14,8.13,3.93,14.39,5,18.1.72,2.47,1.13,3.81,1.13,3.81l3.75,13.69a8.06,8.06,0,0,0,1.31,2.62,10.7,10.7,0,0,0,.69.85,18.23,18.23,0,0,0,3.84,3.15h0c.79.5,1.65,1,2.57,1.5h0q1.38.72,3,1.41h0c8.51,3.67,21.13,6.62,36.22,8.94h0l.72.09c3.33.51,6.8,1,10.34,1.44l.72.09c4,.5,8.2,1,12.47,1.38h0c2.13.21,4.3.43,6.47.62h0c2.17.2,4.35.39,6.56.56,0,0,0,0,0,0,4.44.36,9,.68,13.5,1h0c13.68.88,27.78,1.46,41.56,1.78h0c9.19.22,18.21.32,26.91.32l2.93,0,2.94,0c8.69,0,17.72-.1,26.91-.32h0c13.77-.32,27.88-.9,41.56-1.78h0q6.84-.43,13.5-1s0,0,0,0c2.22-.17,4.39-.36,6.56-.56h0c2.17-.19,4.34-.41,6.46-.62h0c4.26-.43,8.42-.88,12.46-1.38l.72-.09c3.55-.45,7-.93,10.35-1.44l.72-.09h0c15.08-2.32,27.71-5.27,36.22-8.94h0q1.57-.69,3-1.41h0c.92-.47,1.78-1,2.56-1.5h0a18.31,18.31,0,0,0,3.85-3.15,10.54,10.54,0,0,0,.68-.85,8.09,8.09,0,0,0,1.32-2.62l3.75-13.69s.4-1.34,1.12-3.81c1.07-3.71,2.87-10,5-18.09,1.42-5.42,3-11.67,4.66-18.54q1.23-5.14,2.5-10.71s0,0,0,0c1.26-5.56,2.54-11.43,3.78-17.5.41-2,.81-4,1.22-6.09,0,0,0,0,0,0,.81-4.12,1.61-8.34,2.37-12.6s1.48-8.59,2.16-12.93,1.33-8.69,1.9-13.06v0c.87-6.54,1.62-13.12,2.19-19.59.19-2.16.35-4.3.5-6.44.3-4.27.53-8.5.66-12.65s.19-8.41.22-12.72c0-8.79-.12-17.88-.41-27.25-.42-13.64-1.13-27.85-2-42.38-1.17-19.6-2.59-39.79-3.88-60.12-.94-15-1.8-30.1-2.43-45,0-.4,0-.79-.07-1.19-.3-7.39-.55-14.77-.71-22.06q-.18-7.47-.22-14.85c0-2.45,0-4.9,0-7.34l.28-124.81,35.94,8.66,1.5-3.5a24.65,24.65,0,0,0,.93-6.47,13.41,13.41,0,0,0-.25-2.69c-.06-.31-.14-.62-.22-.94s-.15-.63-.25-.93a18.36,18.36,0,0,0-.68-1.88,14.09,14.09,0,0,0-3.32-4.78l0,0a8.16,8.16,0,0,0-2.28-1.47l-31.31-12.16.25-109.94c.37-.74.74-1.47,1.09-2.21a94.37,94.37,0,0,0,3.63-8.85c.51-1.46,1-2.92,1.4-4.37a100.88,100.88,0,0,0,3.25-15.35q.6-4.41.91-8.93c.11-1.51.18-3,.25-4.57.14-3,.21-6.14.25-9.31.08-6.35,0-13,0-20a275,275,0,0,0-1.56-29.78q-.61-5.67-1.47-11.13a209.51,209.51,0,0,0-4.38-20.9c-.43-1.67-.89-3.34-1.37-5-1.43-4.9-3-9.61-4.78-14.19-.59-1.52-1.16-3-1.78-4.53q-1.86-4.47-3.94-8.72-1-2.13-2.13-4.22c-1.44-2.76-3-5.46-4.56-8.09-.79-1.31-1.61-2.6-2.44-3.87a146.41,146.41,0,0,0-13.53-17.91,147.1,147.1,0,0,0-12.47-12.5h0c-1.09-1-2.19-1.94-3.31-2.88h0c-1.12-.93-2.26-1.87-3.41-2.78h0c-3.46-2.72-7-5.31-10.72-7.75h0c-1.23-.81-2.46-1.63-3.72-2.4h0c-3.78-2.34-7.65-4.57-11.65-6.63h0q-2-1-4-2h0c-1.35-.65-2.71-1.31-4.09-1.93h0c-2.76-1.25-5.55-2.44-8.41-3.57h0c-1.42-.56-2.87-1.09-4.31-1.62h0c-1.45-.53-2.91-1.06-4.38-1.56s-3-1-4.44-1.47h0c-1.49-.47-3-.94-4.5-1.38h0c-1.51-.44-3-.87-4.56-1.28h0c-4.61-1.24-9.31-2.37-14.1-3.34h0c-1.59-.33-3.2-.61-4.81-.91h0a287.56,287.56,0,0,0-35.22-4.16h0l-5.22-.25h0c-3.5-.14-7-.24-10.56-.28h-5.41L480-235l-1.9,0h-5.41c-3.55,0-7.06.14-10.56.28h0l-5.22.25h0a287.56,287.56,0,0,0-35.22,4.16h0c-1.61.3-3.22.58-4.81.91h0c-4.79,1-9.49,2.1-14.1,3.34h0c-1.53.41-3.05.84-4.56,1.28h0c-1.51.44-3,.91-4.5,1.38h0c-1.49.47-3,1-4.44,1.47s-2.93,1-4.38,1.56h0c-1.44.53-2.89,1.06-4.31,1.62h0c-2.86,1.13-5.65,2.32-8.41,3.57h0c-1.38.62-2.74,1.28-4.09,1.93h0q-2,1-4,2h0c-4,2.06-7.88,4.29-11.65,6.63h0c-1.26.77-2.49,1.59-3.72,2.4h0c-3.7,2.44-7.26,5-10.72,7.75h0c-1.15.91-2.29,1.85-3.41,2.78h0c-1.12.94-2.22,1.91-3.31,2.88h0a148.47,148.47,0,0,0-12.46,12.5,146.48,146.48,0,0,0-13.54,17.91c-.82,1.27-1.64,2.56-2.43,3.87q-2.39,3.94-4.57,8.09-1.08,2.08-2.12,4.22-2.07,4.26-3.94,8.72c-.62,1.49-1.19,3-1.78,4.53-1.75,4.58-3.35,9.29-4.78,14.19-.48,1.63-.94,3.3-1.38,5a212.39,212.39,0,0,0-4.37,20.9q-.86,5.46-1.47,11.13A275,275,0,0,0,276.32-48c0,7-.08,13.65,0,20,0,3.17.11,6.26.25,9.31.07,1.53.14,3.06.25,4.57.21,3,.5,6,.9,8.93A103.36,103.36,0,0,0,281,10.16c.43,1.45.9,2.91,1.41,4.37,1,2.93,2.23,5.87,3.62,8.85.35.74.72,1.47,1.1,2.21l.25,109.94L256,147.69a8.16,8.16,0,0,0-2.28,1.47l0,0a14.21,14.21,0,0,0-3.31,4.78c-.26.61-.49,1.25-.69,1.88-.09.3-.17.63-.25.93s-.16.63-.21.94a13.41,13.41,0,0,0-.25,2.69Z" transform="translate(-242 242.01)" />
                <path id="path2853" class="cls-2" d="M249,160.41a24.68,24.68,0,0,0,.94,6.47l1.5,3.5,35.84-8.66.28,124.81c.17,78-11.5,166.52-9.5,232.93s28,152.12,28,152.12l3.79,13.69C315.14,704.52,407.21,711,476.63,711c1.11,0,2.25,0,3.37,0s2.26,0,3.38,0c69.41,0,161.48-6.47,166.78-25.72l3.78-13.69s26-85.71,28-152.12-9.67-155-9.5-232.93l.28-124.81,35.84,8.66,1.5-3.5a24.68,24.68,0,0,0,.94-6.47,14.18,14.18,0,0,0-.25-2.69c-.06-.31-.14-.62-.22-.94s-.16-.63-.25-.93a16.32,16.32,0,0,0-.69-1.88,14,14,0,0,0-3.28-4.78l0,0a8.3,8.3,0,0,0-2.28-1.47l-31.25-12.16L673,25.59C684.94,1.69,683.72-19.92,683.72-48c0-133.25-86.59-187.63-201.38-187L480-235l-2.35,0c-114.79-.63-201.38,53.75-201.38,187,0,28.08-1.22,49.69,10.72,73.59l.25,109.94L256,147.69a8.3,8.3,0,0,0-2.28,1.47l0,0A14,14,0,0,0,250.4,154a16.32,16.32,0,0,0-.69,1.88c-.09.3-.18.63-.25.93s-.16.63-.22.94a15,15,0,0,0-.25,2.69Z" transform="translate(-242 242.01)" />
                <path id="path3643" class="cls-3" d="M610.55,370.59a868.1,868.1,0,0,0,5.06,94.81c48.72-25.66,30.27-98,31.54-205.56.58-49.69,1.87-89.54,2.37-121.53-23.33,47.16-39,133.53-39,232.28Z" transform="translate(-242 242.01)" />
                <path id="path3658" class="cls-4" d="M610.55,370.59c0,3.21,0,6.38.06,9.56,16.18-.82,30.26-6.43,38.85-14.59-.08-4.67-.2-9.5-.35-14.44-8.19,8.57-22.22,14.59-38.56,15.72v3.75Z" transform="translate(-242 242.01)" />
                <path id="path3707" class="cls-5" d="M582.81-218.09l.6,5.09c2.51,21.55,26,37.69,54.53,39.28l7.12.38-4.84-5.25A161,161,0,0,0,587.47-216l-4.65-2.09Z" transform="translate(-242 242.01)" />
                <path id="path3715" class="cls-6" d="M593.81-12.54s-22.59-79.68-32-105.38c-9.8-26.84-39.15-98.86-39.15-98.86S565.15-208,580.6-186.3c54.87,77.23,53.85,232.69,53.85,232.69" transform="translate(-242 242.01)" />
                <path id="path3757" class="cls-7" d="M573.15-99l2.35,4.44A14,14,0,0,1,579.34-97c11.72-4.8,29.24,10.74,35.78,26.88.21.51.84,1.81,1.66,3.4L612.9-80.32c-8.46-17.31-23.08-27.47-34-23A14.61,14.61,0,0,0,573.15-99Z" transform="translate(-242 242.01)" />
                <path id="path3787" class="cls-8" d="M568.69-107.62l2.35,4.44a14,14,0,0,1,3.84-2.38c11.72-4.8,29.24,10.74,35.78,26.88.21.51.84,1.81,1.66,3.4L608.44-88.9c-8.46-17.31-23.08-27.47-34-23a14.61,14.61,0,0,0-5.75,4.28Z" transform="translate(-242 242.01)" />
                <path id="path3752" class="cls-9" d="M567.27-113.81l2.35,4.44a14,14,0,0,1,3.84-2.38c11.72-4.8,29.24,10.74,35.78,26.88.21.51.84,1.81,1.66,3.4L607-95.09c-8.46-17.31-23.08-27.47-34-23a14.61,14.61,0,0,0-5.75,4.28Z" transform="translate(-242 242.01)" />
                <path id="path3735" class="cls-10" d="M563-130.72l1.85,6.19a18.37,18.37,0,0,1,5.46-2c16-3.11,34.29,21,38.5,43,.65,3.39,8.58,28.88,8.81,32.15h4.12L609.6-92.82c-5.5-26.28-22.45-44.94-38.25-41.87a19,19,0,0,0-8.35,4Z" transform="translate(-242 242.01)" />
                <path id="path3783" class="cls-11" d="M563-130.72l1.85,6.19a18.37,18.37,0,0,1,5.46-2c16-3.11,34.29,21,38.5,43,.65,3.39,8.58,28.88,8.81,32.15h4.12L609.6-92.82c-5.5-26.28-22.45-44.94-38.25-41.87a19,19,0,0,0-8.35,4Z" transform="translate(-242 242.01)" />
                <path id="path3799" class="cls-12" d="M577.77-86.19l2.1,4a12.77,12.77,0,0,1,3.43-2.12c10.47-4.28,26.12,9.59,32,24,.19.46.75,1.62,1.48,3l-3.46-12.17C605.73-84.93,592.66-94,582.91-90a13.21,13.21,0,0,0-5.14,3.83Z" transform="translate(-242 242.01)" />
                <path id="path3803" class="cls-13" d="M581.34-72.39l2.1,4a12.77,12.77,0,0,1,3.43-2.12c10.47-4.28,26.12,9.59,32,24,.19.46.75,1.62,1.48,3l-3.46-12.17c-7.55-15.46-20.62-24.54-30.37-20.55a13.21,13.21,0,0,0-5.14,3.83Z" transform="translate(-242 242.01)" />
                <path id="rect3861" class="cls-14" d="M601,537.66c-2-8.29-1.48-15.49,5.79-19.8l17.9,2.5c6.17,6.87,4.95,13.75.15,20.62L601,537.66Z" transform="translate(-242 242.01)" />
                <path id="path3864" class="cls-15" d="M604.3,517.39c-1.21-8.15-.57-15.17,5.51-18.84l17,2.37c3,6.48,5.21,13,.15,19.63l-22.69-3.16Z" transform="translate(-242 242.01)" />
                <path id="path4025" class="cls-16" d="M608.06,370.59a871,871,0,0,0,5.06,95.09l.41,3.66,3.25-1.72c12.66-6.67,21.11-16.56,26.44-29.06s7.61-27.57,8.44-45.1c1.65-35-2.63-79.95-2-133.59.58-49.65,1.87-89.5,2.37-121.53l-4.75-1.12c-23.68,47.84-39.22,134.34-39.22,233.36Zm5,0c0-91.17,13.48-171.75,33.72-220.09-.58,29.95-1.61,65.21-2.12,109.31-.64,53.94,3.65,99,2,133.4-.81,17.21-3.11,31.77-8.07,43.4a51.25,51.25,0,0,1-20.9,24.5,867.85,867.85,0,0,1-4.66-90.53Z" transform="translate(-242 242.01)" />
                <path id="rect2864" class="cls-17" d="M362.69,510.43l12.47,77.75c4.36,27.15,48.77,48.94,104.84,51,56.07-2.06,100.49-23.85,104.84-51l12.47-77.75a23.94,23.94,0,0,0-24-24H386.69a23.94,23.94,0,0,0-24,24Z" transform="translate(-242 242.01)" />
                <path id="path3703" class="cls-17" d="M328.47,79a40.45,40.45,0,0,0,1,8.78l0,0,12.31,63.84c6.61,17.73,14.27,32,32,32H586.28c17.73,0,25.4-14.27,32-32l12.31-63.84,0,0a40.45,40.45,0,0,0,1-8.78c0-45.4-57.36-82.2-151.53-82.31C385.83-3.23,328.47,33.57,328.47,79Z" transform="translate(-242 242.01)" />
                <path id="path4157" class="cls-3" d="M349.46,370.59a868.1,868.1,0,0,1-5.06,94.81c-48.71-25.66-30.27-98-31.53-205.56-.59-49.69-1.88-89.54-2.38-121.53,23.34,47.16,39,133.53,39,232.28Z" transform="translate(-242 242.01)" />
                <path id="path4159" class="cls-4" d="M349.46,370.59c0,3.21,0,6.38-.06,9.56-16.17-.82-30.26-6.43-38.84-14.59.07-4.67.19-9.5.34-14.44,8.19,8.57,22.23,14.59,38.56,15.72,0,1.25,0,2.49,0,3.75Z" transform="translate(-242 242.01)" />
                <path id="path4161" class="cls-5" d="M377.2-218.09l-.59,5.09c-2.51,21.55-26,37.69-54.53,39.28l-7.13.38,4.85-5.25A160.9,160.9,0,0,1,372.55-216l4.65-2.09Z" transform="translate(-242 242.01)" />
                <path id="path4163" class="cls-6" d="M366.2-12.54s22.6-79.68,32-105.38c9.81-26.84,39.15-98.86,39.15-98.86S394.86-208,379.41-186.3c-54.87,77.23-53.86,232.69-53.86,232.69" transform="translate(-242 242.01)" />
                <path id="path4165" class="cls-18" d="M386.86-99l-2.34,4.44A14.16,14.16,0,0,0,380.67-97c-11.71-4.8-29.23,10.74-35.78,26.88-.21.51-.84,1.81-1.65,3.4l3.87-13.62c8.46-17.31,23.08-27.47,34-23A14.54,14.54,0,0,1,386.86-99Z" transform="translate(-242 242.01)" />
                <path id="path4167" class="cls-19" d="M391.32-107.62,389-103.18a14.16,14.16,0,0,0-3.85-2.38c-11.71-4.8-29.23,10.74-35.78,26.88-.21.51-.84,1.81-1.65,3.4l3.87-13.62c8.46-17.31,23.08-27.47,34-23a14.54,14.54,0,0,1,5.75,4.28Z" transform="translate(-242 242.01)" />
                <path id="path4169" class="cls-20" d="M392.73-113.81l-2.34,4.44a14.16,14.16,0,0,0-3.85-2.38c-11.71-4.8-29.23,10.74-35.78,26.88-.21.51-.84,1.81-1.65,3.4L353-95.09c8.46-17.31,23.08-27.47,34-23a14.54,14.54,0,0,1,5.75,4.28Z" transform="translate(-242 242.01)" />
                <path id="path4171" class="cls-21" d="M397-130.72l-1.84,6.19a18.33,18.33,0,0,0-5.47-2c-16-3.11-34.28,21-38.5,43-.65,3.39-8.58,28.88-8.8,32.15h-4.13l12.15-41.44c5.49-26.28,22.45-44.94,38.25-41.87a19,19,0,0,1,8.34,4Z" transform="translate(-242 242.01)" />
                <path id="path4173" class="cls-22" d="M397-130.72l-1.84,6.19a18.33,18.33,0,0,0-5.47-2c-16-3.11-34.28,21-38.5,43-.65,3.39-8.58,28.88-8.8,32.15h-4.13l12.15-41.44c5.49-26.28,22.45-44.94,38.25-41.87a19,19,0,0,1,8.34,4Z" transform="translate(-242 242.01)" />
                <path id="path4175" class="cls-23" d="M382.24-86.19l-2.09,4a12.82,12.82,0,0,0-3.44-2.12c-10.46-4.28-26.11,9.59-32,24-.19.46-.75,1.62-1.48,3l3.46-12.17C354.29-84.93,367.35-94,377.11-90a13.18,13.18,0,0,1,5.13,3.83Z" transform="translate(-242 242.01)" />
                <path id="path4177" class="cls-24" d="M378.67-72.39l-2.09,4a12.82,12.82,0,0,0-3.44-2.12c-10.46-4.28-26.11,9.59-32,24-.19.46-.75,1.62-1.48,3l3.46-12.17c7.56-15.46,20.62-24.54,30.38-20.55a13.18,13.18,0,0,1,5.13,3.83Z" transform="translate(-242 242.01)" />
                <path id="path4179" class="cls-25" d="M359,537.66c2-8.29,1.48-15.49-5.79-19.8l-17.89,2.5c-6.18,6.87-5,13.75-.16,20.62L359,537.66Z" transform="translate(-242 242.01)" />
                <path id="path4181" class="cls-26" d="M355.71,517.39c1.21-8.15.57-15.17-5.51-18.84l-17,2.37c-3,6.48-5.21,13-.15,19.63l22.69-3.16Z" transform="translate(-242 242.01)" />
                <path id="path4183" class="cls-16" d="M352,370.59a871,871,0,0,1-5.06,95.09l-.41,3.66-3.25-1.72c-12.66-6.67-21.11-16.56-26.43-29.06s-7.62-27.57-8.44-45.1c-1.65-35,2.63-79.95,2-133.59-.59-49.65-1.88-89.5-2.38-121.53l4.75-1.12C336.41,185.07,352,271.58,352,370.59Zm-5,0c0-91.17-13.48-171.75-33.72-220.09.59,29.95,1.61,65.21,2.13,109.31.63,53.94-3.65,99-2,133.4.81,17.21,3.1,31.77,8.06,43.4a51.22,51.22,0,0,0,20.91,24.5A867.94,867.94,0,0,0,347,370.58Z" transform="translate(-242 242.01)" />
            </g>
        </g>
        <g id="Layer_1" data-name="Layer 1">
            <g id="g4206">
                <path id="path4208" class="cls-27" d="M482.06-190.68c5.1,0,9.77,2.06,14.21,6.14s9.1,12.94,12.26,18.39a75.23,75.23,0,0,1,6.7,14.21l4.17-2.78c1.6,1.06,3.09,3.41,4.74,7.26a109.42,109.42,0,0,1,5,15.6l6.13-.56a53.92,53.92,0,0,1,5,13.1,43.83,43.83,0,0,1,1.11,13.1l5-1.67a98.65,98.65,0,0,1-1.67,17.29c-.94,4.56-2.22,7.91-3.9,10a126,126,0,0,1,2.78,23.14A130.33,130.33,0,0,1,542-35.68c-.88,6.56-1.91,13.17-3.63,17s-3.65,5.16-6.42,5.57-4.78.61-10-3.07S509.75-26,500.73-34.85a55.31,55.31,0,0,1-7,2.51,30.86,30.86,0,0,1-5.86,1.12H472.57a31.12,31.12,0,0,1-5.84-1.12,58.89,58.89,0,0,1-7-2.51c-9,8.89-15.89,15-21.19,18.67s-7.24,3.48-10,3.07-4.69-1.76-6.41-5.57-2.72-10.44-3.63-17a143.14,143.14,0,0,1-1.68-21.75,129.58,129.58,0,0,1,2.79-23.14c-1.67-2.12-2.95-5.47-3.9-10A104.82,104.82,0,0,1,414-107.89l5,1.67a44.84,44.84,0,0,1,1.12-13.1,54.76,54.76,0,0,1,5-13.1l6.13.56a117.91,117.91,0,0,1,5-15.6c1.67-3.85,3.18-6.2,4.74-7.26l4.17,2.78A77.28,77.28,0,0,1,452-166.15c3.19-5.45,7.83-14.24,12.25-18.39s9.13-6.12,14.22-6.14h3.63Z" transform="translate(-242 242.01)" />
                <path id="path4210" class="cls-28" d="M502.69-33.24a58.49,58.49,0,0,0,7.94,8.41c4,3.63,10.66,11.47,15.36,13.1s9.33,2.77,12.47-3.34,6.06-22.3,6.24-33.43a94.06,94.06,0,0,0-5.07-32.34,95.59,95.59,0,0,1,2.18,29.36c-.76,10.62-3.24,28-6.69,33.61s-8.23,2.08-13.73-.54-11.59-7.44-18.7-14.83Z" transform="translate(-242 242.01)" />
                <path id="path4212" class="cls-28" d="M499.7-34.08a21.83,21.83,0,0,1-8.5,4.78,23.08,23.08,0,0,1-10,.64,7.45,7.45,0,0,0,4.3-1.81,7.83,7.83,0,0,0,2.33-4.15,35.52,35.52,0,0,1-12,5,31.83,31.83,0,0,1-12.42.09,8.48,8.48,0,0,0,5.14-.9,4.15,4.15,0,0,0,1.87-3.61,15.41,15.41,0,0,1-5.14,1.34,20.9,20.9,0,0,1-5.9-.26,34,34,0,0,0,8.88-1.89,35.23,35.23,0,0,0,8.23-4.17,10.42,10.42,0,0,1-.94,4.8,5.69,5.69,0,0,1-2.8,2.8A60,60,0,0,0,483-34.17a26,26,0,0,0,7-3.71,15.46,15.46,0,0,1,.18,3.71,4.05,4.05,0,0,1-.74,2.26,21.16,21.16,0,0,0,4-.56c1.74-.34,3.82-.88,6.27-1.61Z" transform="translate(-242 242.01)" />
                <path id="path4214" class="cls-28" d="M500.44-49.75a48,48,0,0,1,7.12-2.61A52.9,52.9,0,0,1,515-53.82a3,3,0,0,0-2.18-1.45,15.78,15.78,0,0,0-4.65-.29,19.19,19.19,0,0,1,6.54-2.91,62.6,62.6,0,0,1,10.62-1.74,7.82,7.82,0,0,0-3.79-2.63,9.81,9.81,0,0,0-4.94-.14,61.58,61.58,0,0,1,8.87-2.91,21.21,21.21,0,0,1,6.55-.58c-1.78-1.43-4.57-1.76-8.43-1.17a63.32,63.32,0,0,0-14.7,5l4.22,1.74a22.21,22.21,0,0,0-7.28,2.48,6.2,6.2,0,0,0-3.05,3.92l2.62.73a15.1,15.1,0,0,0-3.79,2,2.52,2.52,0,0,0-1.15,2Z" transform="translate(-242 242.01)" />
                <path id="path4216" class="cls-28" d="M489.08-87.38q-2.88,2.64-.86,5.23c1.36,1.76,4.35,3.48,9,5.24a6.25,6.25,0,0,1-2.19-2.62,3.57,3.57,0,0,1,.14-2.77,12.71,12.71,0,0,0,6.11,4.51,35.52,35.52,0,0,0,10.62,2.05,42.65,42.65,0,0,1-7.85-3.36c-1.53-1-1.94-1.67-1.31-2.32a26.77,26.77,0,0,0,9.59,2.48,17.51,17.51,0,0,0,8.45-1.62c-3.56-.79-7.08-1.49-10.76-2.17s-7.28-1.2-11.06-1.74L499.7-82a9.76,9.76,0,0,1-3.63-1.76,6.5,6.5,0,0,1-2-2.9l-1.62,3.2a11.89,11.89,0,0,1-2.17-1.9,5.92,5.92,0,0,1-1.16-2Z" transform="translate(-242 242.01)" />
                <path id="path4218" class="cls-28" d="M541.3-83.69c3-2.21,5-5.89,6.11-11s1.42-11.68.74-19.77l-4.51,7.41c.58-4.51,0-9.51-1.6-15.28a93.59,93.59,0,0,0-8.16-19.05,6.49,6.49,0,0,1-.43,4.37,10.93,10.93,0,0,1-3.34,4.06c1.13-3.63.72-7.87-1.31-12.79s-5.52-10.35-10.77-16.59a5.19,5.19,0,0,1,.29,3.65,14.75,14.75,0,0,1-2.17,4.8,70.61,70.61,0,0,0-7.28-14.47,92.94,92.94,0,0,0-11.05-13.82c2.6,3,4.94,7.48,7.27,13.51a168.34,168.34,0,0,1,6.54,22.56,6.07,6.07,0,0,0,4.52-1.46,8,8,0,0,0,2.31-4.65,31.31,31.31,0,0,1,6.11,12.51,31.53,31.53,0,0,1-.14,14,13.73,13.73,0,0,0,5.82-2,8.16,8.16,0,0,0,3.2-4.08,67.8,67.8,0,0,1,5.68,17.32c.77,5,.36,8.86-1.17,12.06l7-3.34a30.41,30.41,0,0,1-.28,9.6,74.73,74.73,0,0,1-3.35,12.57Z" transform="translate(-242 242.01)" />
                <path id="path4220" class="cls-28" d="M495.93-154.89c-.93-1.06-2.66-2-5.25-2.91s-6-2.71-10.17-2.32S471.67-158,466.1-155a42.89,42.89,0,0,1,5-5.37c1.94-1.73,4.9-3.33,6.25-4.8s.74-3.72,1.75-3.65,2.67,2.93,4.65,4.37,5.21,2.78,7.28,4.36a23,23,0,0,1,4.94,5.23Z" transform="translate(-242 242.01)" />
                <path id="path4222" class="cls-28" d="M492.43-140.33c.05-3.47-7-10.73-10.77-10.76s-11.75,7.42-11.91,10.9c0,3.54,7.81,9.89,11.62,9.89s11-6.51,11.06-10Z" transform="translate(-242 242.01)" />
                <path id="path4224" class="cls-28" d="M510.32-105.43c1.75-1.19,2.86-3.2,3.35-6.11a34.88,34.88,0,0,0-.44-11.2,10.26,10.26,0,0,1-2.48,4.37,3.63,3.63,0,0,1-3.34,1,6.72,6.72,0,0,0,2.34-7c-.58-2.75-2.59-5.94-6-9.59a20.68,20.68,0,0,1,1.17,6,20.09,20.09,0,0,1-.45,6.83,11,11,0,0,1-3.2,5.11,15.53,15.53,0,0,0,4.8,2.17,8.37,8.37,0,0,0,4.22,0,15.54,15.54,0,0,1,.58,4.22,15,15,0,0,1-.58,4.2Z" transform="translate(-242 242.01)" />
                <path id="path4226" class="cls-28" d="M493.66-186.3a22.73,22.73,0,0,0-7.94-5.63c-2.89-1.2-6-2.64-9.42-1.47s-7,4.21-11.07,8.91c3.11-2.48,7-3.79,11.74-4.13s10.24.49,16.69,2.32Z" transform="translate(-242 242.01)" />
                <path id="path4228" class="cls-28" d="M523.84-91.43A23.41,23.41,0,0,1,516-88.7c-3.45.72-9.33,1.77-12.63,1.46s-5.47-.74-6.76-3.06-1.51-5.82-.86-10.69l2.8,3a6,6,0,0,1,4-1,8.56,8.56,0,0,1,5,1.91A10.58,10.58,0,0,1,510-91.32a75,75,0,0,0,7.71.34,38.12,38.12,0,0,0,6.13-.45Z" transform="translate(-242 242.01)" />
                <path id="path4230" class="cls-27" d="M502.33-88.65a4.54,4.54,0,0,1-4.53-4.55,4.54,4.54,0,0,1,4.53-4.55,4.53,4.53,0,0,1,4.52,4.55,4.53,4.53,0,0,1-4.52,4.55" transform="translate(-242 242.01)" />
                <path id="path4232" class="cls-28" d="M502.15-90.23a1.89,1.89,0,0,1-1.89-1.89A1.89,1.89,0,0,1,502.15-94,1.89,1.89,0,0,1,504-92.12a1.89,1.89,0,0,1-1.88,1.89" transform="translate(-242 242.01)" />
                <path id="path4234" class="cls-28" d="M457.29-33.24a56.79,56.79,0,0,1-7.94,8.41c-4,3.63-10.6,11.47-15.36,13.1S424.71-9,421.51-15.07s-6-22.3-6.23-33.43a96,96,0,0,1,5.07-32.34,96.21,96.21,0,0,0-2.18,29.36c.81,10.62,3.29,28,6.69,33.61s8.26,2.08,13.73-.54,11.62-7.44,18.71-14.83Z" transform="translate(-242 242.01)" />
                <path id="path4236" class="cls-28" d="M459.54-49.75a45,45,0,0,0-7.12-2.61A51.8,51.8,0,0,0,445-53.82a3.12,3.12,0,0,1,2.18-1.45,15.87,15.87,0,0,1,4.65-.29,18.92,18.92,0,0,0-6.54-2.91,61.92,61.92,0,0,0-10.62-1.74,8,8,0,0,1,3.79-2.63A9.83,9.83,0,0,1,443.4-63a59.73,59.73,0,0,0-8.88-2.91,21.05,21.05,0,0,0-6.54-.58c1.8-1.43,4.59-1.76,8.43-1.17a63,63,0,0,1,14.7,5l-4.22,1.74a21.64,21.64,0,0,1,7.28,2.48,6.07,6.07,0,0,1,3.05,3.92l-2.62.73a14.75,14.75,0,0,1,3.79,2c.84.72,1.2,1.33,1.15,2Z" transform="translate(-242 242.01)" />
                <path id="path4238" class="cls-28" d="M470.9-87.38c1.94,1.76,2.22,3.5.86,5.23s-4.35,3.48-9,5.24a6,6,0,0,0,2.17-2.62,3.4,3.4,0,0,0-.14-2.77,12.57,12.57,0,0,1-6.11,4.51,35.13,35.13,0,0,1-10.62,2.05,41.42,41.42,0,0,0,7.85-3.36c1.54-1,2-1.67,1.31-2.32a26.66,26.66,0,0,1-9.6,2.48,17.59,17.59,0,0,1-8.44-1.62c3.57-.79,7.1-1.49,10.76-2.17s7.3-1.2,11.05-1.74L460.28-82a9.54,9.54,0,0,0,3.63-1.76,6.08,6.08,0,0,0,2-2.9l1.6,3.2a10.76,10.76,0,0,0,2.18-1.9,5.37,5.37,0,0,0,1.17-2Z" transform="translate(-242 242.01)" />
                <path id="path4240" class="cls-28" d="M418.67-83.69c-2.95-2.21-5-5.89-6.11-11s-1.36-11.68-.72-19.77l4.5,7.41c-.56-4.51,0-9.51,1.59-15.28a96.49,96.49,0,0,1,8.16-19.05,6.94,6.94,0,0,0,.44,4.37,11.67,11.67,0,0,0,3.34,4.06c-1.12-3.63-.7-7.87,1.31-12.79s5.53-10.35,10.76-16.59a5.37,5.37,0,0,0-.28,3.65,15.19,15.19,0,0,0,2.17,4.8,73.23,73.23,0,0,1,7.28-14.47,95.59,95.59,0,0,1,11.05-13.82c-2.57,3-4.92,7.48-7.28,13.51a176.11,176.11,0,0,0-6.54,22.56,6.09,6.09,0,0,1-4.51-1.46,8.26,8.26,0,0,1-2.32-4.65,32,32,0,0,0-6.11,12.51,32.14,32.14,0,0,0,.15,14,14.13,14.13,0,0,1-5.83-2,8.3,8.3,0,0,1-3.19-4.08,69,69,0,0,0-5.68,17.32c-.76,5-.35,8.86,1.16,12.06l-7-3.34a31.36,31.36,0,0,0,.29,9.6,78.77,78.77,0,0,0,3.35,12.57Z" transform="translate(-242 242.01)" />
                <path id="path4242" class="cls-28" d="M449.66-105.43c-1.73-1.19-2.84-3.2-3.35-6.11a36.34,36.34,0,0,1,.43-11.2,10.8,10.8,0,0,0,2.48,4.37,3.68,3.68,0,0,0,3.35,1,6.77,6.77,0,0,1-2.34-7c.59-2.75,2.61-5.94,6-9.59a22.5,22.5,0,0,0-1.15,6,23,23,0,0,0,.43,6.83,11,11,0,0,0,3.2,5.11,15.13,15.13,0,0,1-4.8,2.17,8.37,8.37,0,0,1-4.22,0,17.28,17.28,0,0,0-.58,4.22,16.17,16.17,0,0,0,.57,4.2Z" transform="translate(-242 242.01)" />
                <path id="path4244" class="cls-28" d="M436.14-91.43A24,24,0,0,0,444-88.7c3.49.72,9.38,1.77,12.63,1.46s5.48-.74,6.76-3.06,1.53-5.82.86-10.69l-2.8,3a5.9,5.9,0,0,0-4-1,8.74,8.74,0,0,0-5,1.91A10.81,10.81,0,0,0,450-91.32a74,74,0,0,1-7.71.34,38.31,38.31,0,0,1-6.13-.45Z" transform="translate(-242 242.01)" />
                <path id="path4246" class="cls-27" d="M457.7-88.65a4.55,4.55,0,0,1-4.55-4.55,4.55,4.55,0,0,1,4.55-4.55,4.55,4.55,0,0,1,4.54,4.55,4.55,4.55,0,0,1-4.54,4.55" transform="translate(-242 242.01)" />
                <path id="path4248" class="cls-28" d="M457.88-90.23A1.89,1.89,0,0,1,456-92.12,1.89,1.89,0,0,1,457.88-94a1.89,1.89,0,0,1,1.88,1.89,1.89,1.89,0,0,1-1.88,1.89" transform="translate(-242 242.01)" />
            </g>
        </g>
    </g>
    <g id="g4287">
        <g id="g4291">
            <path id="path4293" class="cls-29" d="M477.3,442.87c-6.7,0-12.83-2.71-18.66-8.07s-11.93-17-16.08-24.13a98.69,98.69,0,0,1-8.8-18.66l-5.48,3.66c-2.09-1.4-4-4.49-6.22-9.53a143.64,143.64,0,0,1-6.58-20.48l-8.05.73a70.11,70.11,0,0,1-6.6-17.2A57.34,57.34,0,0,1,399.36,332l-6.58,2.19A127.72,127.72,0,0,1,395,311.5c1.22-6,2.9-10.38,5.12-13.17A164.83,164.83,0,0,1,396.44,268c-.28-9.91,1-20,2.19-28.54s2.5-17.29,4.77-22.32,4.79-6.77,8.42-7.31,6.27-.8,13.16,4,16,12.84,27.81,24.51A73.15,73.15,0,0,1,462,235a39.14,39.14,0,0,1,7.69-1.46h20.12a39.65,39.65,0,0,1,7.67,1.46,79.21,79.21,0,0,1,9.15,3.3c11.79-11.67,20.85-19.72,27.81-24.51s9.51-4.57,13.16-4,6.16,2.31,8.42,7.31,3.57,13.71,4.77,22.32S563.15,258,562.93,268a169.2,169.2,0,0,1-3.65,30.38c2.19,2.79,3.87,7.18,5.12,13.17a138,138,0,0,1,2.19,22.69L560,332a59,59,0,0,1-1.46,17.19,72.22,72.22,0,0,1-6.61,17.2l-8-.73a154.71,154.71,0,0,1-6.58,20.48c-2.2,5-4.18,8.13-6.23,9.53L525.62,392a102.58,102.58,0,0,1-8.8,18.66c-4.2,7.15-10.29,18.68-16.09,24.13s-12,8-18.66,8.07H477.3Z" transform="translate(-242 242.01)" />
            <path id="path4295" class="cls-30" d="M450.23,236.2a77.58,77.58,0,0,0-10.43-11c-5.26-4.76-14-15-20.17-17.2s-12.24-3.63-16.37,4.39-7.95,29.28-8.19,43.88a123.89,123.89,0,0,0,6.66,42.46,124.94,124.94,0,0,1-2.86-38.55c1-13.94,4.25-36.77,8.78-44.11s10.8-2.74,18,.71,15.21,9.76,24.56,19.46Z" transform="translate(-242 242.01)" />
            <path id="path4297" class="cls-30" d="M454.14,237.31A28.71,28.71,0,0,1,465.3,231a30.45,30.45,0,0,1,13.14-.85,9.86,9.86,0,0,0-5.64,2.39,10.17,10.17,0,0,0-3.07,5.45,46.35,46.35,0,0,1,15.72-6.51,41.56,41.56,0,0,1,16.3-.12c-3-.21-5.22.21-6.75,1.18a5.43,5.43,0,0,0-2.45,4.74,19.92,19.92,0,0,1,6.74-1.77,27.35,27.35,0,0,1,7.74.35,44.32,44.32,0,0,0-11.65,2.48,46,46,0,0,0-10.81,5.47,13.68,13.68,0,0,1,1.23-6.3,7.57,7.57,0,0,1,3.68-3.68,78,78,0,0,0-13.38,3.57,34.17,34.17,0,0,0-9.2,4.86,20.19,20.19,0,0,1-.23-4.86,5.41,5.41,0,0,1,1-3,28.09,28.09,0,0,0-5.29.74,84.94,84.94,0,0,0-8.23,2.12Z" transform="translate(-242 242.01)" />
            <path id="path4299" class="cls-30" d="M453.17,257.88a64.34,64.34,0,0,1-9.34,3.42,67.9,67.9,0,0,1-9.74,1.91,4,4,0,0,0,2.86,1.91,20.86,20.86,0,0,0,6.1.38,25.29,25.29,0,0,1-8.58,3.82,82.65,82.65,0,0,1-13.94,2.29,10.31,10.31,0,0,0,5,3.44,12.89,12.89,0,0,0,6.49.19,78.48,78.48,0,0,1-11.65,3.82,27.62,27.62,0,0,1-8.59.76c2.34,1.88,6,2.31,11.07,1.53s11.44-3,19.29-6.49l-5.54-2.28a29.23,29.23,0,0,0,9.55-3.26,8.13,8.13,0,0,0,4-5.14l-3.44-1a20.35,20.35,0,0,0,5-2.67,3.32,3.32,0,0,0,1.5-2.66Z" transform="translate(-242 242.01)" />
            <path id="path4301" class="cls-30" d="M468.08,307.27q3.8-3.47,1.14-6.86c-1.8-2.31-5.71-4.58-11.85-6.89a8.26,8.26,0,0,1,2.88,3.45,4.61,4.61,0,0,1-.19,3.63c-1.72-2.55-4.36-4.46-8-5.92A46.63,46.63,0,0,0,438.1,292a56.23,56.23,0,0,1,10.31,4.41c2,1.27,2.55,2.19,1.72,3a35.35,35.35,0,0,0-12.59-3.25,23.24,23.24,0,0,0-11.09,2.12c4.67,1,9.29,2,14.13,2.85s9.55,1.59,14.51,2.29l-.95-3.25a12.5,12.5,0,0,1,4.77,2.31,8.55,8.55,0,0,1,2.66,3.8l2.13-4.2a14.93,14.93,0,0,1,2.85,2.5,7.78,7.78,0,0,1,1.53,2.67Z" transform="translate(-242 242.01)" />
            <path id="path4303" class="cls-30" d="M399.53,302.42c-3.89,2.9-6.53,7.74-8,14.51s-1.86,15.33-1,25.94l5.92-9.71c-.76,5.92,0,12.48,2.1,20a122.59,122.59,0,0,0,10.71,25,8.49,8.49,0,0,1,.56-5.73,14.47,14.47,0,0,1,4.39-5.33c-1.49,4.76-.94,10.33,1.72,16.8s7.24,13.58,14.13,21.77a6.81,6.81,0,0,1-.38-4.79,19,19,0,0,1,2.86-6.3,92.11,92.11,0,0,0,9.55,19,121.54,121.54,0,0,0,14.51,18.14c-3.42-4-6.49-9.81-9.55-17.74a220.75,220.75,0,0,1-8.59-29.6,7.87,7.87,0,0,0-5.92,1.91c-1.56,1.34-2.48,3.35-3,6.11a39.7,39.7,0,0,1-7.84-34.75,17.67,17.67,0,0,0-7.64,2.67,10.72,10.72,0,0,0-4.2,5.35c-4-8.82-6.46-16.28-7.45-22.74s-.47-11.63,1.53-15.83l-9.15,4.39a39.8,39.8,0,0,1,.38-12.6,97.72,97.72,0,0,1,4.39-16.51Z" transform="translate(-242 242.01)" />
            <path id="path4305" class="cls-30" d="M459.09,395.88c1.23,1.39,3.49,2.67,6.89,3.82s7.9,3.56,13.35,3.05,11.61-2.84,18.92-6.68a57.13,57.13,0,0,1-6.51,7.05c-2.55,2.27-6.44,4.37-8.21,6.3s-1,4.88-2.29,4.79-3.51-3.85-6.11-5.73-6.84-3.66-9.55-5.73a30,30,0,0,1-6.49-6.87Z" transform="translate(-242 242.01)" />
            <path id="path4307" class="cls-30" d="M463.69,376.77c-.07,4.56,9.13,14.09,14.13,14.13,5-.12,15.43-9.74,15.64-14.32,0-4.64-10.26-13-15.26-13s-14.43,8.54-14.51,13.16Z" transform="translate(-242 242.01)" />
            <path id="path4309" class="cls-30" d="M440.2,331c-2.29,1.56-3.75,4.2-4.39,8s-.44,8.59.57,14.7a13.38,13.38,0,0,1,3.26-5.73A4.79,4.79,0,0,1,444,346.6a8.8,8.8,0,0,0-3.06,9.18c.75,3.61,3.39,7.81,7.83,12.6a27.42,27.42,0,0,1-1.54-7.84,26.63,26.63,0,0,1,.59-9,14.51,14.51,0,0,1,4.2-6.7,20.31,20.31,0,0,0-6.3-2.85,10.82,10.82,0,0,0-5.54,0,20.65,20.65,0,0,1-.75-5.55,20,20,0,0,1,.75-5.51Z" transform="translate(-242 242.01)" />
            <path id="path4311" class="cls-30" d="M462.07,437.12a29.86,29.86,0,0,0,10.43,7.38c3.79,1.58,7.83,3.47,12.36,1.94s9.24-5.52,14.53-11.7c-4.08,3.25-9.16,5-15.41,5.42s-13.44-.64-21.91-3.05Z" transform="translate(-242 242.01)" />
            <path id="path4313" class="cls-30" d="M422.46,312.58c2.34-1.53,5.76-2.64,10.26-3.58s12.25-2.32,16.59-1.91,7.17,1,8.87,4,2,7.64,1.13,14l-3.68-3.89a7.82,7.82,0,0,1-5.24,1.34c-2.05-.16-4.91-.87-6.56-2.5s-2.69-4.27-3.2-7.64a98.76,98.76,0,0,0-10.12-.45,51.18,51.18,0,0,0-8.05.59Z" transform="translate(-242 242.01)" />
            <path id="path4315" class="cls-29" d="M450.7,308.94a6,6,0,1,1-5.95,6,6,6,0,0,1,5.95-6" transform="translate(-242 242.01)" />
            <path id="path4317" class="cls-30" d="M450.93,311a2.48,2.48,0,1,1-2.47,2.47,2.48,2.48,0,0,1,2.47-2.47" transform="translate(-242 242.01)" />
            <path id="path4319" class="cls-30" d="M509.81,236.2a74.71,74.71,0,0,1,10.43-11c5.19-4.76,13.91-15,20.17-17.2s12.17-3.63,16.37,4.39,7.87,29.28,8.18,43.88a126.09,126.09,0,0,1-6.65,42.46,126.51,126.51,0,0,0,2.85-38.55c-1.06-13.94-4.31-36.77-8.77-44.11s-10.85-2.74-18,.71-15.27,9.76-24.56,19.46Z" transform="translate(-242 242.01)" />
            <path id="path4321" class="cls-30" d="M506.86,257.88a60.7,60.7,0,0,0,9.34,3.42,66.71,66.71,0,0,0,9.75,1.91,4.1,4.1,0,0,1-2.86,1.91,21.05,21.05,0,0,1-6.11.38,24.9,24.9,0,0,0,8.59,3.82,81.45,81.45,0,0,0,13.94,2.29,10.48,10.48,0,0,1-5,3.44,12.87,12.87,0,0,1-6.48.19,76.65,76.65,0,0,0,11.65,3.82,27.49,27.49,0,0,0,8.59.76c-2.36,1.88-6,2.31-11.07,1.53s-11.46-3-19.29-6.49l5.54-2.28a28.4,28.4,0,0,1-9.55-3.26,7.93,7.93,0,0,1-4-5.14l3.44-1a19.61,19.61,0,0,1-5-2.67c-1.1-.94-1.58-1.74-1.51-2.66Z" transform="translate(-242 242.01)" />
            <path id="path4323" class="cls-30" d="M492,307.27q-3.82-3.47-1.14-6.86c1.77-2.31,5.71-4.58,11.82-6.89a7.74,7.74,0,0,0-2.85,3.45,4.44,4.44,0,0,0,.18,3.63c1.7-2.55,4.35-4.46,8-5.92a46.18,46.18,0,0,1,14-2.69,55,55,0,0,0-10.31,4.41c-2,1.27-2.57,2.19-1.72,3a35.09,35.09,0,0,1,12.59-3.25,23.34,23.34,0,0,1,11.09,2.12c-4.69,1-9.32,2-14.13,2.85s-9.58,1.59-14.51,2.29l.95-3.25a12.15,12.15,0,0,0-4.77,2.31,8.09,8.09,0,0,0-2.69,3.8l-2.1-4.2a13.8,13.8,0,0,0-2.85,2.5,7.05,7.05,0,0,0-1.53,2.67Z" transform="translate(-242 242.01)" />
            <path id="path4325" class="cls-30" d="M560.51,302.42c3.87,2.9,6.51,7.74,8,14.51s1.79,15.33.94,25.94l-5.9-9.71c.74,5.92,0,12.48-2.09,20a126.64,126.64,0,0,1-10.71,25,9.2,9.2,0,0,0-.57-5.73,15.42,15.42,0,0,0-4.39-5.33c1.46,4.76.92,10.33-1.72,16.8s-7.27,13.58-14.13,21.77a7.1,7.1,0,0,0,.38-4.79,20.29,20.29,0,0,0-2.86-6.3,95.74,95.74,0,0,1-9.55,19,125.5,125.5,0,0,1-14.51,18.14c3.37-4,6.47-9.81,9.56-17.74a228.57,228.57,0,0,0,8.58-29.6,7.93,7.93,0,0,1,5.92,1.91c1.54,1.34,2.43,3.35,3,6.11a39.74,39.74,0,0,0,7.83-34.75,18.06,18.06,0,0,1,7.64,2.67,11,11,0,0,1,4.2,5.35c4-8.82,6.44-16.28,7.45-22.74s.45-11.63-1.53-15.83l9.15,4.39a41.3,41.3,0,0,0-.37-12.6,105,105,0,0,0-4.4-16.51Z" transform="translate(-242 242.01)" />
            <path id="path4327" class="cls-30" d="M519.84,331c2.26,1.56,3.72,4.2,4.38,8s.43,8.59-.56,14.7A13.91,13.91,0,0,0,520.4,348,4.84,4.84,0,0,0,516,346.6a8.9,8.9,0,0,1,3.07,9.18c-.78,3.61-3.42,7.81-7.83,12.6a33.51,33.51,0,0,0,.94-16.8,14.49,14.49,0,0,0-4.19-6.7,19.57,19.57,0,0,1,6.29-2.85,10.86,10.86,0,0,1,5.55,0,22.86,22.86,0,0,0,.75-5.55,21.15,21.15,0,0,0-.75-5.51Z" transform="translate(-242 242.01)" />
            <path id="path4329" class="cls-30" d="M537.57,312.58c-2.38-1.53-5.8-2.64-10.26-3.58s-12.31-2.32-16.58-1.91-7.2,1-8.87,4-2,7.64-1.13,14l3.68-3.89a7.67,7.67,0,0,0,5.23,1.34c2-.16,4.86-.87,6.56-2.5s2.67-4.27,3.21-7.64a97.47,97.47,0,0,1,10.12-.45,51.66,51.66,0,0,1,8.05.59Z" transform="translate(-242 242.01)" />
            <path id="path4331" class="cls-29" d="M509.28,308.94a6,6,0,1,1-6,6,6,6,0,0,1,6-6" transform="translate(-242 242.01)" />
            <path id="path4333" class="cls-30" d="M509,311a2.48,2.48,0,1,1-2.47,2.47A2.48,2.48,0,0,1,509,311" transform="translate(-242 242.01)" />
        </g>
    </g></svg>
