<svg id="svg2" xmlns="http://www.w3.org/2000/svg" xmlns:xlink="http://www.w3.org/1999/xlink" viewBox="0 0 476 960"><defs>
        <style>
            .cls-1,
            .cls-17,
            .cls-2,
            .cls-3,
            .cls-4 {
                fill-opacity: 1;
            }

            .cls-1,
            .cls-17,
            .cls-5 {
                stroke: #191919;
            }

            .cls-1 {
                stroke-width: 14px;
            }

            .cls-2 {
                fill: #fff;
            }

            .cls-17,
            .cls-3 {
                fill: #262626;
            }

            .cls-16,
            .cls-17,
            .cls-3 {
                opacity: 0.9;
            }

            .cls-16,
            .cls-17,
            .cls-3,
            .cls-4,
            .cls-6 {
                isolation: isolate;
            }

            .cls-4,
            .cls-6 {
                opacity: 0.5;
            }

            .cls-5 {
                fill: #212121;
            }

            .cls-17,
            .cls-5 {
                stroke-width: 5px;
            }

            .cls-6 {
                fill: none;
                stroke: #292929;
                stroke-linecap: round;
                stroke-linejoin: round;
                stroke-width: 6px;
            }

            .cls-7 {
                fill: url(#linear-gradient);
            }

            .cls-8 {
                fill: url(#linear-gradient-2);
            }

            .cls-9 {
                fill: url(#linear-gradient-3);
            }

            .cls-10 {
                fill: url(#linear-gradient-4);
            }

            .cls-11 {
                fill: url(#linear-gradient-5);
            }

            .cls-12 {
                fill: url(#linear-gradient-6);
            }

            .cls-13 {
                fill: url(#linear-gradient-7);
            }

            .cls-14 {
                fill: url(#linear-gradient-8);
            }

            .cls-15 {
                fill: url(#linear-gradient-9);
            }

            .cls-16 {
                fill: #191919;
            }

            .cls-18 {
                fill: url(#linear-gradient-10);
            }

            .cls-19 {
                fill: url(#linear-gradient-11);
            }

            .cls-20 {
                fill: url(#linear-gradient-12);
            }

            .cls-21 {
                fill: url(#linear-gradient-13);
            }

            .cls-22 {
                fill: url(#linear-gradient-14);
            }

            .cls-23 {
                fill: url(#linear-gradient-15);
            }

            .cls-24 {
                fill: url(#linear-gradient-16);
            }

            .cls-25 {
                fill: url(#linear-gradient-17);
            }

            .cls-26 {
                fill: url(#linear-gradient-18);
            }
        </style>
        <linearGradient id="linear-gradient" x1="868.81" y1="-371.97" x2="845.64" y2="-364.35" gradientTransform="matrix(0, 1, 1, 0, 729.33, -286.63)" gradientUnits="userSpaceOnUse">
            <stop offset="0" stop-color="#1a1a1a" />
            <stop offset="1" stop-opacity="0" />
        </linearGradient>
        <linearGradient id="linear-gradient-2" x1="887.94" y1="-59.04" x2="876.18" y2="-59.1" gradientTransform="matrix(0, 1, 1, 0, 428.77, -273.5)" xlink:href="#linear-gradient" />
        <linearGradient id="linear-gradient-3" x1="879.62" y1="-62.66" x2="815.54" y2="-57.07" gradientTransform="matrix(0, 1, 1, 0, 430.19, -267.31)" xlink:href="#linear-gradient" />
        <linearGradient id="linear-gradient-4" x1="886.41" y1="-85.11" x2="872.95" y2="-78.08" gradientTransform="matrix(0, 1, 1, 0, 428.77, -273.5)" xlink:href="#linear-gradient" />
        <linearGradient id="linear-gradient-5" x1="864.41" y1="-88.35" x2="819.69" y2="-37.38" gradientTransform="matrix(0, 1, 1, 0, 428.77, -273.5)" xlink:href="#linear-gradient" />
        <linearGradient id="linear-gradient-6" x1="867.25" y1="-77.73" x2="784.64" y2="-78.98" gradientTransform="matrix(0, 0.89, 0.89, 0, 432.85, -182.22)" xlink:href="#linear-gradient" />
        <linearGradient id="linear-gradient-7" x1="858.96" y1="-80.95" x2="791.2" y2="-76.95" gradientTransform="matrix(0, 0.89, 0.89, 0, 429.27, -196.03)" xlink:href="#linear-gradient" />
        <linearGradient id="linear-gradient-8" x1="252.8" y1="-418.65" x2="228.69" y2="-413.19" gradientTransform="matrix(-0.14, 0.99, 0.99, 0.14, 790.65, -234.85)" xlink:href="#linear-gradient" />
        <linearGradient id="linear-gradient-9" x1="262.19" y1="-416.12" x2="239.92" y2="-415.71" gradientTransform="matrix(-0.14, 0.99, 0.99, 0.14, 789.37, -224.59)" xlink:href="#linear-gradient" />
        <linearGradient id="linear-gradient-10" x1="868.82" y1="-57.93" x2="845.65" y2="-50.31" gradientTransform="translate(544.68 -286.63) rotate(90)" xlink:href="#linear-gradient" />
        <linearGradient id="linear-gradient-11" x1="887.94" y1="254.94" x2="876.18" y2="254.88" gradientTransform="translate(845.18 -273.5) rotate(90)" xlink:href="#linear-gradient" />
        <linearGradient id="linear-gradient-12" x1="879.62" y1="251.33" x2="815.54" y2="256.92" gradientTransform="translate(843.78 -267.31) rotate(90)" xlink:href="#linear-gradient" />
        <linearGradient id="linear-gradient-13" x1="886.4" y1="228.88" x2="872.94" y2="235.91" gradientTransform="translate(845.18 -273.5) rotate(90)" xlink:href="#linear-gradient" />
        <linearGradient id="linear-gradient-14" x1="864.4" y1="225.64" x2="819.68" y2="276.61" gradientTransform="translate(845.18 -273.5) rotate(90)" xlink:href="#linear-gradient" />
        <linearGradient id="linear-gradient-15" x1="867.25" y1="273.79" x2="784.64" y2="272.54" gradientTransform="translate(841.14 -182.22) rotate(90) scale(0.89)" xlink:href="#linear-gradient" />
        <linearGradient id="linear-gradient-16" x1="858.96" y1="270.59" x2="791.2" y2="274.59" gradientTransform="translate(844.74 -196.03) rotate(90) scale(0.89)" xlink:href="#linear-gradient" />
        <linearGradient id="linear-gradient-17" x1="209.46" y1="-107.69" x2="185.35" y2="-102.23" gradientTransform="translate(483.29 -234.85) rotate(82.07)" xlink:href="#linear-gradient" />
        <linearGradient id="linear-gradient-18" x1="218.86" y1="-105.13" x2="196.59" y2="-104.72" gradientTransform="translate(484.59 -224.59) rotate(82.07)" xlink:href="#linear-gradient" />
    </defs>
    <title>car-basic</title>
    <g id="layer1">
        <g id="g3890">
            <path id="path3855" class="cls-1" d="M711,315.58a24.27,24.27,0,0,0-.94-6.47l-1.5-3.5-35.93,8.66-.29-124.81c0-2.44,0-4.89,0-7.35q0-7.37.21-14.84c.17-7.29.42-14.67.72-22.06,0-.4.05-.79.07-1.19.63-14.93,1.49-30,2.43-45,1.29-20.33,2.71-40.52,3.88-60.12.86-14.53,1.58-28.74,2-42.38.29-9.37.46-18.46.4-27.25,0-4.31-.09-8.57-.21-12.72s-.36-8.38-.66-12.65c-.15-2.14-.31-4.28-.5-6.44-.57-6.47-1.32-13.05-2.19-19.6v0c-.58-4.37-1.22-8.71-1.9-13.06s-1.4-8.67-2.16-12.94-1.57-8.47-2.38-12.59c0,0,0,0,0,0-.4-2.07-.8-4.07-1.21-6.09-1.25-6.07-2.52-11.94-3.79-17.5,0,0,0,0,0,0q-1.26-5.56-2.5-10.71c-1.64-6.87-3.23-13.12-4.65-18.54-2.13-8.12-3.93-14.38-5-18.09-.72-2.47-1.13-3.81-1.13-3.81l-3.75-13.69a7.86,7.86,0,0,0-1.31-2.62,8.86,8.86,0,0,0-.69-.85,18.23,18.23,0,0,0-3.84-3.15h0c-.79-.5-1.64-1-2.56-1.5h0q-1.4-.72-3-1.41h0c-8.51-3.67-21.14-6.62-36.22-8.94h0l-.71-.09c-3.34-.51-6.8-1-10.35-1.44l-.72-.09c-4-.5-8.2-1-12.47-1.38h0c-2.13-.21-4.29-.43-6.47-.62h0c-2.17-.2-4.35-.39-6.56-.56h0c-4.44-.36-9-.68-13.5-1h0c-13.69-.88-27.79-1.46-41.56-1.78h0c-9.19-.22-18.22-.32-26.91-.32L480-235l-2.94,0c-8.69,0-17.71.1-26.9.32h0c-13.78.32-27.88.9-41.57,1.78h0c-4.55.29-9.06.61-13.5,1h0c-2.21.17-4.39.36-6.56.56h0c-2.18.19-4.34.41-6.47.62h0c-4.27.43-8.43.88-12.47,1.38l-.72.09c-3.55.45-7,.93-10.34,1.44l-.72.09h0c-15.09,2.32-27.71,5.27-36.22,8.94h0q-1.59.69-3,1.41h0c-.93.47-1.78,1-2.57,1.5h0a18.23,18.23,0,0,0-3.84,3.15,10.7,10.7,0,0,0-.69.85,8.06,8.06,0,0,0-1.31,2.62l-3.75,13.69s-.41,1.34-1.13,3.81c-1.07,3.71-2.86,10-5,18.09-1.42,5.42-3,11.67-4.65,18.54q-1.25,5.15-2.5,10.71v0c-1.27,5.56-2.54,11.43-3.78,17.5-.42,2-.82,4-1.22,6.09v0c-.81,4.12-1.62,8.34-2.38,12.59s-1.47,8.6-2.15,12.94S282-86.57,281.46-82.2v0c-.87,6.55-1.62,13.13-2.19,19.6-.19,2.16-.35,4.3-.5,6.44-.3,4.27-.53,8.5-.65,12.65s-.2,8.41-.22,12.72c0,8.79.11,17.88.4,27.25.42,13.64,1.14,27.85,2,42.38,1.17,19.6,2.6,39.79,3.88,60.12.94,15,1.81,30.1,2.44,45,0,.4,0,.79.06,1.19.3,7.39.55,14.77.72,22.06q.17,7.47.22,14.84c0,2.46,0,4.91,0,7.35l-.28,124.81-35.94-8.66-1.5,3.5a24.68,24.68,0,0,0-.94,6.47,14.18,14.18,0,0,0,.25,2.69c.06.31.14.62.22.94s.16.63.25.93a16.32,16.32,0,0,0,.69,1.88,14.07,14.07,0,0,0,3.31,4.78l0,0A8.3,8.3,0,0,0,256,328.3l31.31,12.16-.25,109.94c-.37.74-.74,1.47-1.09,2.21a94.37,94.37,0,0,0-3.63,8.85c-.51,1.46-1,2.92-1.4,4.37a102.11,102.11,0,0,0-3.25,15.35q-.6,4.41-.91,8.93c-.1,1.51-.18,3-.25,4.57-.14,3.05-.21,6.14-.25,9.31-.07,6.35,0,13,0,20a272.38,272.38,0,0,0,1.57,29.78q.61,5.67,1.46,11.12a212,212,0,0,0,4.38,20.91c.44,1.67.9,3.34,1.37,5,1.43,4.9,3,9.61,4.79,14.19.58,1.52,1.16,3,1.78,4.53q1.86,4.47,3.93,8.72c.69,1.41,1.4,2.83,2.13,4.22,1.45,2.76,3,5.46,4.56,8.09.79,1.31,1.61,2.59,2.44,3.87a146.24,146.24,0,0,0,26,30.41h0c1.09,1,2.19,1.94,3.31,2.87h0c1.12.94,2.26,1.88,3.41,2.79h0c3.46,2.72,7,5.31,10.72,7.75h0c1.23.8,2.47,1.62,3.72,2.4h0c3.78,2.34,7.65,4.57,11.66,6.63h0c1.33.68,2.68,1.34,4,2h0c1.35.65,2.72,1.31,4.09,1.93h0c2.76,1.25,5.55,2.44,8.4,3.57h0c1.43.56,2.87,1.09,4.32,1.62h0c1.44.53,2.9,1.06,4.37,1.56s2.95,1,4.44,1.47h0c1.49.47,3,.94,4.5,1.38h0c1.51.44,3,.87,4.56,1.28h0c4.61,1.24,9.3,2.37,14.09,3.34h0c1.59.33,3.2.61,4.81.91h0a287.79,287.79,0,0,0,35.22,4.16h0l5.22.25h0c3.5.14,7,.24,10.57.28h5.4c.64,0,1.27,0,1.91,0s1.27,0,1.91,0h5.4c3.56,0,7.07-.14,10.56-.28h0l5.22-.25h0a287.56,287.56,0,0,0,35.22-4.16h0c1.61-.3,3.23-.58,4.82-.91h0c4.79-1,9.48-2.1,14.09-3.34h0c1.53-.41,3.06-.84,4.57-1.28h0c1.51-.44,3-.91,4.5-1.38h0c1.49-.47,3-1,4.44-1.47s2.93-1,4.37-1.56h0c1.45-.53,2.89-1.06,4.31-1.62h0c2.85-1.13,5.64-2.32,8.4-3.57h0c1.38-.62,2.74-1.28,4.1-1.93h0c1.35-.66,2.7-1.32,4-2h0c4-2.06,7.88-4.29,11.66-6.63h0c1.25-.78,2.49-1.6,3.72-2.4h0c3.7-2.44,7.26-5,10.72-7.75h0c1.15-.91,2.28-1.85,3.4-2.79h0c1.12-.93,2.21-1.9,3.31-2.87h0a146.24,146.24,0,0,0,26-30.41c.82-1.28,1.65-2.56,2.44-3.87,1.58-2.63,3.11-5.33,4.56-8.09.72-1.39,1.43-2.81,2.12-4.22q2.07-4.26,3.94-8.72c.62-1.49,1.2-3,1.78-4.53,1.76-4.58,3.36-9.29,4.78-14.19.48-1.63.94-3.3,1.38-5a212,212,0,0,0,4.37-20.91c.58-3.63,1.06-7.34,1.47-11.12A272.38,272.38,0,0,0,683.68,524c0-7,.07-13.65,0-20,0-3.17-.11-6.26-.25-9.31-.07-1.53-.15-3.06-.25-4.57-.22-3-.51-6-.91-8.93A102.11,102.11,0,0,0,679,465.83c-.43-1.45-.89-2.91-1.41-4.37a91.62,91.62,0,0,0-3.62-8.85c-.35-.74-.72-1.47-1.09-2.21l-.25-109.94L704,328.3a8.3,8.3,0,0,0,2.28-1.47l0,0a14.07,14.07,0,0,0,3.31-4.78,16.32,16.32,0,0,0,.69-1.88c.09-.3.17-.63.25-.93s.16-.63.22-.94a15,15,0,0,0,.25-2.69Z" transform="translate(-241.99 242.01)" />
            <path id="path2853" class="cls-2" d="M711,315.58a24.27,24.27,0,0,0-.94-6.47l-1.5-3.5-35.84,8.66-.28-124.81c-.17-78,11.5-166.52,9.5-232.93s-28-152.12-28-152.12l-3.78-13.69C644.85-228.53,552.78-235,483.37-235L480-235l-3.37,0c-69.42,0-161.48,6.47-166.78,25.72l-3.78,13.69s-26,85.71-28,152.12,9.66,155,9.5,232.93l-.28,124.81-35.85-8.66-1.5,3.5a24.68,24.68,0,0,0-.94,6.47,15,15,0,0,0,.25,2.69c.06.31.14.62.22.94s.16.63.25.93a18.43,18.43,0,0,0,.69,1.88,14,14,0,0,0,3.28,4.78l0,0A8.46,8.46,0,0,0,256,328.3l31.25,12.16L287,450.4c-11.94,23.9-10.72,45.51-10.72,73.59,0,133.25,86.59,187.63,201.38,187l2.35,0,2.34,0c114.79.63,201.38-53.75,201.38-187,0-28.08,1.23-49.69-10.72-73.59l-.25-109.94L704,328.3a8.16,8.16,0,0,0,2.28-1.47l0,0A14.28,14.28,0,0,0,709.6,322a18.36,18.36,0,0,0,.68-1.88c.1-.3.18-.63.25-.93s.16-.63.22-.94a13.41,13.41,0,0,0,.25-2.69Z" transform="translate(-241.99 242.01)" />
            <path id="path3643" class="cls-3" d="M349.44,105.4a868.1,868.1,0,0,0-5.06-94.81c-48.71,25.66-30.27,98-31.53,205.56-.59,49.69-1.88,89.54-2.38,121.53,23.34-47.16,39-133.53,39-232.28Z" transform="translate(-241.99 242.01)" />
            <path id="path3658" class="cls-4" d="M349.44,105.4c0-3.21,0-6.38-.06-9.56-16.17.82-30.26,6.43-38.84,14.59.07,4.67.19,9.5.34,14.44,8.19-8.57,22.23-14.59,38.56-15.72,0-1.25,0-2.49,0-3.75Z" transform="translate(-241.99 242.01)" />
            <path id="path3707" class="cls-5" d="M377.18,694.08l-.59-5.09c-2.51-21.55-26-37.69-54.53-39.28l-7.13-.38,4.85,5.25A160.9,160.9,0,0,0,372.53,692l4.65,2.09Z" transform="translate(-241.99 242.01)" />
            <path id="path3715" class="cls-6" d="M366.18,488.53s22.6,79.68,32,105.38c9.81,26.84,39.15,98.86,39.15,98.86s-42.47-8.74-57.92-30.48c-54.87-77.23-53.85-232.69-53.85-232.69" transform="translate(-241.99 242.01)" />
            <path id="path3757" class="cls-7" d="M386.84,575l-2.34-4.44a14.16,14.16,0,0,1-3.85,2.38c-11.71,4.8-29.23-10.74-35.78-26.88-.21-.51-.84-1.81-1.65-3.4l3.87,13.62c8.46,17.31,23.08,27.47,34,23a14.54,14.54,0,0,0,5.75-4.28Z" transform="translate(-241.99 242.01)" />
            <path id="path3787" class="cls-8" d="M391.3,583.61,389,579.17a14.16,14.16,0,0,1-3.85,2.38c-11.71,4.8-29.23-10.74-35.78-26.88-.21-.51-.84-1.81-1.65-3.4l3.87,13.62c8.46,17.31,23.08,27.47,34,23a14.54,14.54,0,0,0,5.75-4.28Z" transform="translate(-241.99 242.01)" />
            <path id="path3752" class="cls-9" d="M392.72,589.8l-2.34-4.44a14.16,14.16,0,0,1-3.85,2.38c-11.71,4.8-29.23-10.74-35.78-26.88-.21-.51-.84-1.81-1.65-3.4L353,571.08c8.46,17.31,23.08,27.47,34,23a14.54,14.54,0,0,0,5.75-4.28Z" transform="translate(-241.99 242.01)" />
            <path id="path3735" class="cls-10" d="M397,606.71l-1.84-6.19a18.14,18.14,0,0,1-5.47,2c-16,3.12-34.28-21-38.5-43-.65-3.39-8.58-28.88-8.81-32.15h-4.12L350.4,568.8c5.49,26.29,22.45,45,38.25,41.88a19,19,0,0,0,8.34-4Z" transform="translate(-241.99 242.01)" />
            <path id="path3783" class="cls-11" d="M397,606.71l-1.84-6.19a18.14,18.14,0,0,1-5.47,2c-16,3.12-34.28-21-38.5-43-.65-3.39-8.58-28.88-8.81-32.15h-4.12L350.4,568.8c5.49,26.29,22.45,45,38.25,41.88a19,19,0,0,0,8.34-4Z" transform="translate(-241.99 242.01)" />
            <path id="path3799" class="cls-12" d="M382.22,562.18l-2.09-4a12.82,12.82,0,0,1-3.44,2.12c-10.46,4.28-26.11-9.59-32-24-.19-.46-.75-1.62-1.48-3l3.46,12.17c7.56,15.46,20.62,24.54,30.38,20.54a13.06,13.06,0,0,0,5.13-3.82Z" transform="translate(-241.99 242.01)" />
            <path id="path3803" class="cls-13" d="M378.65,548.38l-2.09-4a12.82,12.82,0,0,1-3.44,2.12c-10.46,4.28-26.11-9.59-32-24-.19-.46-.75-1.62-1.48-3l3.46,12.17c7.56,15.46,20.62,24.54,30.38,20.54a13.06,13.06,0,0,0,5.13-3.82Z" transform="translate(-241.99 242.01)" />
            <path id="rect3861" class="cls-14" d="M359-61.67c2,8.29,1.48,15.49-5.79,19.8l-17.89-2.5c-6.18-6.87-4.95-13.75-.16-20.62L359-61.67Z" transform="translate(-241.99 242.01)" />
            <path id="path3864" class="cls-15" d="M355.69-41.4c1.21,8.15.57,15.17-5.51,18.84l-17-2.37c-3-6.48-5.21-13-.15-19.63l22.69,3.16Z" transform="translate(-241.99 242.01)" />
            <path id="path4025" class="cls-16" d="M351.93,105.4a871,871,0,0,0-5.06-95.09l-.41-3.66-3.25,1.72C330.55,15,322.1,24.93,316.77,37.43s-7.61,27.57-8.43,45.1c-1.65,35,2.63,79.95,2,133.59-.59,49.65-1.88,89.5-2.38,121.53l4.75,1.12c23.68-47.84,39.22-134.34,39.22-233.36Zm-5,0c0,91.17-13.48,171.75-33.72,220.09.59-29.95,1.61-65.21,2.13-109.31.63-53.94-3.65-99-2-133.4.81-17.21,3.1-31.77,8.06-43.41a51.34,51.34,0,0,1,20.9-24.5,865.4,865.4,0,0,1,4.66,90.53Z" transform="translate(-241.99 242.01)" />
            <path id="rect2864" class="cls-17" d="M597.3-34.44l-12.47-77.75c-4.35-27.15-48.77-48.94-104.84-51-56.07,2.06-100.49,23.85-104.84,51L362.68-34.44a24,24,0,0,0,24,24H573.3a23.94,23.94,0,0,0,24-24Z" transform="translate(-241.99 242.01)" />
            <path id="path3703" class="cls-17" d="M631.52,397a40.45,40.45,0,0,0-1-8.78l0,0-12.31-63.84c-6.6-17.73-14.27-32-32-32H373.71c-17.73,0-25.39,14.27-32,32L329.4,388.21l0,0a40.45,40.45,0,0,0-1,8.78c0,45.4,57.37,82.2,151.53,82.31,94.17-.11,151.53-36.91,151.53-82.31Z" transform="translate(-241.99 242.01)" />
            <path id="path4157" class="cls-3" d="M610.53,105.4a868.1,868.1,0,0,1,5.06-94.81c48.72,25.66,30.27,98,31.54,205.56.58,49.69,1.87,89.54,2.37,121.53-23.33-47.16-39-133.53-39-232.28Z" transform="translate(-241.99 242.01)" />
            <path id="path4159" class="cls-4" d="M610.53,105.4c0-3.21,0-6.38.06-9.56,16.18.82,30.26,6.43,38.85,14.59-.08,4.67-.2,9.5-.35,14.44-8.19-8.57-22.22-14.59-38.56-15.72V105.4Z" transform="translate(-241.99 242.01)" />
            <path id="path4161" class="cls-5" d="M582.79,694.08l.6-5.09c2.51-21.55,26-37.69,54.53-39.28l7.12-.38-4.84,5.25A161,161,0,0,1,587.45,692l-4.66,2.09Z" transform="translate(-241.99 242.01)" />
            <path id="path4163" class="cls-6" d="M593.79,488.53s-22.59,79.68-32,105.38c-9.8,26.84-39.15,98.86-39.15,98.86s42.47-8.74,57.92-30.48c54.87-77.23,53.86-232.69,53.86-232.69" transform="translate(-241.99 242.01)" />
            <path id="path4165" class="cls-18" d="M573.13,575l2.35-4.44a14,14,0,0,0,3.84,2.38c11.72,4.8,29.24-10.74,35.78-26.88.21-.51.84-1.81,1.66-3.4l-3.88,13.62c-8.46,17.31-23.08,27.47-34,23a14.61,14.61,0,0,1-5.75-4.28Z" transform="translate(-241.99 242.01)" />
            <path id="path4167" class="cls-19" d="M568.67,583.61l2.35-4.44a14,14,0,0,0,3.84,2.38c11.72,4.8,29.24-10.74,35.78-26.88.21-.51.84-1.81,1.66-3.4l-3.88,13.62c-8.46,17.31-23.08,27.47-34,23a14.61,14.61,0,0,1-5.75-4.28Z" transform="translate(-241.99 242.01)" />
            <path id="path4169" class="cls-20" d="M567.26,589.8l2.35-4.44a14,14,0,0,0,3.84,2.38c11.72,4.8,29.24-10.74,35.78-26.88.21-.51.84-1.81,1.66-3.4L607,571.08c-8.46,17.31-23.08,27.47-34,23a14.61,14.61,0,0,1-5.75-4.28Z" transform="translate(-241.99 242.01)" />
            <path id="path4171" class="cls-21" d="M563,606.71l1.85-6.19a18.08,18.08,0,0,0,5.46,2c16,3.12,34.29-21,38.5-43,.65-3.39,8.58-28.88,8.81-32.15h4.12L609.58,568.8c-5.5,26.29-22.45,45-38.25,41.88a19,19,0,0,1-8.35-4Z" transform="translate(-241.99 242.01)" />
            <path id="path4173" class="cls-22" d="M563,606.71l1.85-6.19a18.08,18.08,0,0,0,5.46,2c16,3.12,34.29-21,38.5-43,.65-3.39,8.58-28.88,8.81-32.15h4.12L609.58,568.8c-5.5,26.29-22.45,45-38.25,41.88a19,19,0,0,1-8.35-4Z" transform="translate(-241.99 242.01)" />
            <path id="path4175" class="cls-23" d="M577.75,562.18l2.1-4a12.61,12.61,0,0,0,3.43,2.12c10.47,4.28,26.12-9.59,32-24,.19-.46.75-1.62,1.48-3l-3.46,12.17C605.71,560.92,592.64,570,582.89,566a13.09,13.09,0,0,1-5.14-3.82Z" transform="translate(-241.99 242.01)" />
            <path id="path4177" class="cls-24" d="M581.32,548.38l2.1-4a12.61,12.61,0,0,0,3.43,2.12c10.47,4.28,26.12-9.59,32-24,.19-.46.75-1.62,1.48-3l-3.46,12.17c-7.55,15.46-20.62,24.54-30.37,20.54a13.09,13.09,0,0,1-5.14-3.82Z" transform="translate(-241.99 242.01)" />
            <path id="path4179" class="cls-25" d="M601-61.67c-2,8.29-1.48,15.49,5.79,19.8l17.9-2.5c6.17-6.87,4.95-13.75.15-20.62L601-61.67Z" transform="translate(-241.99 242.01)" />
            <path id="path4181" class="cls-26" d="M604.28-41.4c-1.21,8.15-.57,15.17,5.51,18.84l17-2.37c3-6.48,5.21-13,.15-19.63L604.28-41.4Z" transform="translate(-241.99 242.01)" />
            <path id="path4183" class="cls-16" d="M608,105.4a871,871,0,0,1,5.06-95.09l.41-3.66,3.25,1.72C629.42,15,637.87,24.93,643.2,37.43s7.61,27.57,8.44,45.1c1.65,35-2.64,79.95-2,133.59.58,49.65,1.87,89.5,2.37,121.53l-4.75,1.12C623.59,290.92,608,204.41,608,105.4Zm5,0c0,91.17,13.48,171.75,33.72,220.09-.58-29.95-1.61-65.21-2.12-109.31-.64-53.94,3.65-99,2-133.4-.81-17.21-3.11-31.77-8.07-43.41a51.34,51.34,0,0,0-20.9-24.5A868.14,868.14,0,0,0,613,105.4Z" transform="translate(-241.99 242.01)" />
        </g>
    </g>
</svg>
